<mxfile host="app.diagrams.net" modified="2024-02-24T22:11:50.544Z" agent="Mozilla/5.0 (Windows NT 10.0; Win64; x64) AppleWebKit/537.36 (KHTML, like Gecko) Chrome/121.0.0.0 Safari/537.36 Edg/121.0.0.0" etag="89Y00WCz4jGFtpJM8btZ" version="23.1.5" type="device">
  <diagram id="1ie4kI88ew0-H1G2MR_T" name="Page-1">
    <mxGraphModel dx="4210" dy="1098" grid="1" gridSize="10" guides="1" tooltips="1" connect="1" arrows="1" fold="1" page="1" pageScale="1" pageWidth="850" pageHeight="1100" math="0" shadow="0">
      <root>
        <mxCell id="0" />
        <mxCell id="1" parent="0" />
        <mxCell id="BwEoltWDEDMI9O7-S3fw-11" style="edgeStyle=none;shape=connector;rounded=0;orthogonalLoop=1;jettySize=auto;html=1;exitX=0;exitY=0.25;exitDx=0;exitDy=0;entryX=1;entryY=0.5;entryDx=0;entryDy=0;labelBackgroundColor=default;strokeColor=default;align=center;verticalAlign=middle;fontFamily=Helvetica;fontSize=11;fontColor=#FFFFFF;endArrow=none;" parent="1" source="Y-LkQrVHgWmDQBg6I4oN-1" target="Y-LkQrVHgWmDQBg6I4oN-38" edge="1">
          <mxGeometry relative="1" as="geometry" />
        </mxCell>
        <mxCell id="BwEoltWDEDMI9O7-S3fw-12" style="edgeStyle=none;shape=connector;rounded=0;orthogonalLoop=1;jettySize=auto;html=1;exitX=0;exitY=1;exitDx=0;exitDy=0;entryX=1;entryY=0;entryDx=0;entryDy=0;labelBackgroundColor=default;strokeColor=default;align=center;verticalAlign=middle;fontFamily=Helvetica;fontSize=11;fontColor=#FFFFFF;endArrow=none;" parent="1" source="Y-LkQrVHgWmDQBg6I4oN-1" target="Y-LkQrVHgWmDQBg6I4oN-37" edge="1">
          <mxGeometry relative="1" as="geometry" />
        </mxCell>
        <mxCell id="BwEoltWDEDMI9O7-S3fw-13" style="edgeStyle=none;shape=connector;rounded=0;orthogonalLoop=1;jettySize=auto;html=1;exitX=1;exitY=0;exitDx=0;exitDy=0;entryX=0.5;entryY=0;entryDx=0;entryDy=0;labelBackgroundColor=default;strokeColor=default;align=center;verticalAlign=middle;fontFamily=Helvetica;fontSize=11;fontColor=#FFFFFF;endArrow=none;" parent="1" source="Y-LkQrVHgWmDQBg6I4oN-1" target="Y-LkQrVHgWmDQBg6I4oN-19" edge="1">
          <mxGeometry relative="1" as="geometry" />
        </mxCell>
        <mxCell id="BwEoltWDEDMI9O7-S3fw-14" style="edgeStyle=none;shape=connector;rounded=0;orthogonalLoop=1;jettySize=auto;html=1;exitX=1;exitY=1;exitDx=0;exitDy=0;entryX=0;entryY=0;entryDx=0;entryDy=0;labelBackgroundColor=default;strokeColor=default;align=center;verticalAlign=middle;fontFamily=Helvetica;fontSize=11;fontColor=#FFFFFF;endArrow=none;" parent="1" source="Y-LkQrVHgWmDQBg6I4oN-1" target="Y-LkQrVHgWmDQBg6I4oN-40" edge="1">
          <mxGeometry relative="1" as="geometry" />
        </mxCell>
        <mxCell id="Y-LkQrVHgWmDQBg6I4oN-1" value="Suppliers" style="whiteSpace=wrap;html=1;align=center;fillColor=#E5CCFF;fontColor=default;" parent="1" vertex="1">
          <mxGeometry x="-1532" y="160" width="100" height="40" as="geometry" />
        </mxCell>
        <mxCell id="BwEoltWDEDMI9O7-S3fw-58" style="edgeStyle=none;shape=connector;rounded=0;orthogonalLoop=1;jettySize=auto;html=1;exitX=1;exitY=0.25;exitDx=0;exitDy=0;entryX=0;entryY=0.5;entryDx=0;entryDy=0;labelBackgroundColor=default;strokeColor=default;align=center;verticalAlign=middle;fontFamily=Helvetica;fontSize=11;fontColor=#FFFFFF;endArrow=none;" parent="1" source="Y-LkQrVHgWmDQBg6I4oN-6" target="Y-LkQrVHgWmDQBg6I4oN-58" edge="1">
          <mxGeometry relative="1" as="geometry" />
        </mxCell>
        <mxCell id="BwEoltWDEDMI9O7-S3fw-59" style="edgeStyle=none;shape=connector;rounded=0;orthogonalLoop=1;jettySize=auto;html=1;exitX=1;exitY=0.5;exitDx=0;exitDy=0;entryX=0;entryY=0.5;entryDx=0;entryDy=0;labelBackgroundColor=default;strokeColor=default;align=center;verticalAlign=middle;fontFamily=Helvetica;fontSize=11;fontColor=#FFFFFF;endArrow=none;" parent="1" source="Y-LkQrVHgWmDQBg6I4oN-6" target="Y-LkQrVHgWmDQBg6I4oN-23" edge="1">
          <mxGeometry relative="1" as="geometry" />
        </mxCell>
        <mxCell id="BwEoltWDEDMI9O7-S3fw-61" style="edgeStyle=none;shape=connector;rounded=0;orthogonalLoop=1;jettySize=auto;html=1;exitX=1;exitY=1;exitDx=0;exitDy=0;entryX=0;entryY=0;entryDx=0;entryDy=0;labelBackgroundColor=default;strokeColor=default;align=center;verticalAlign=middle;fontFamily=Helvetica;fontSize=11;fontColor=#FFFFFF;endArrow=none;" parent="1" source="Y-LkQrVHgWmDQBg6I4oN-6" target="Y-LkQrVHgWmDQBg6I4oN-54" edge="1">
          <mxGeometry relative="1" as="geometry" />
        </mxCell>
        <mxCell id="BwEoltWDEDMI9O7-S3fw-62" style="edgeStyle=none;shape=connector;rounded=0;orthogonalLoop=1;jettySize=auto;html=1;exitX=0;exitY=1;exitDx=0;exitDy=0;entryX=0.5;entryY=0;entryDx=0;entryDy=0;labelBackgroundColor=default;strokeColor=default;align=center;verticalAlign=middle;fontFamily=Helvetica;fontSize=11;fontColor=#FFFFFF;endArrow=none;" parent="1" source="Y-LkQrVHgWmDQBg6I4oN-6" target="Y-LkQrVHgWmDQBg6I4oN-55" edge="1">
          <mxGeometry relative="1" as="geometry" />
        </mxCell>
        <mxCell id="BwEoltWDEDMI9O7-S3fw-65" style="edgeStyle=none;shape=connector;rounded=0;orthogonalLoop=1;jettySize=auto;html=1;exitX=0.25;exitY=1;exitDx=0;exitDy=0;entryX=1;entryY=0;entryDx=0;entryDy=0;labelBackgroundColor=default;strokeColor=default;align=center;verticalAlign=middle;fontFamily=Helvetica;fontSize=11;fontColor=#FFFFFF;endArrow=none;" parent="1" source="Y-LkQrVHgWmDQBg6I4oN-6" target="Y-LkQrVHgWmDQBg6I4oN-57" edge="1">
          <mxGeometry relative="1" as="geometry" />
        </mxCell>
        <mxCell id="Y-LkQrVHgWmDQBg6I4oN-6" value="Membership" style="whiteSpace=wrap;html=1;align=center;fontColor=default;fillColor=#CCFF99;" parent="1" vertex="1">
          <mxGeometry x="-1640" y="1760" width="100" height="40" as="geometry" />
        </mxCell>
        <mxCell id="BwEoltWDEDMI9O7-S3fw-73" style="edgeStyle=none;shape=connector;rounded=0;orthogonalLoop=1;jettySize=auto;html=1;exitX=0.25;exitY=1;exitDx=0;exitDy=0;entryX=1;entryY=0;entryDx=0;entryDy=0;labelBackgroundColor=default;strokeColor=default;align=center;verticalAlign=middle;fontFamily=Helvetica;fontSize=11;fontColor=#FFFFFF;endArrow=none;" parent="1" source="Y-LkQrVHgWmDQBg6I4oN-7" target="Y-LkQrVHgWmDQBg6I4oN-63" edge="1">
          <mxGeometry relative="1" as="geometry" />
        </mxCell>
        <mxCell id="BwEoltWDEDMI9O7-S3fw-74" style="edgeStyle=none;shape=connector;rounded=0;orthogonalLoop=1;jettySize=auto;html=1;exitX=0;exitY=1;exitDx=0;exitDy=0;entryX=0.5;entryY=0;entryDx=0;entryDy=0;labelBackgroundColor=default;strokeColor=default;align=center;verticalAlign=middle;fontFamily=Helvetica;fontSize=11;fontColor=#FFFFFF;endArrow=none;" parent="1" source="Y-LkQrVHgWmDQBg6I4oN-7" target="Y-LkQrVHgWmDQBg6I4oN-62" edge="1">
          <mxGeometry relative="1" as="geometry" />
        </mxCell>
        <mxCell id="BwEoltWDEDMI9O7-S3fw-75" style="edgeStyle=none;shape=connector;rounded=0;orthogonalLoop=1;jettySize=auto;html=1;exitX=0.5;exitY=1;exitDx=0;exitDy=0;labelBackgroundColor=default;strokeColor=default;align=center;verticalAlign=middle;fontFamily=Helvetica;fontSize=11;fontColor=#FFFFFF;endArrow=none;" parent="1" source="Y-LkQrVHgWmDQBg6I4oN-7" target="Y-LkQrVHgWmDQBg6I4oN-61" edge="1">
          <mxGeometry relative="1" as="geometry" />
        </mxCell>
        <mxCell id="BwEoltWDEDMI9O7-S3fw-76" style="edgeStyle=none;shape=connector;rounded=0;orthogonalLoop=1;jettySize=auto;html=1;exitX=1;exitY=1;exitDx=0;exitDy=0;entryX=0.5;entryY=0;entryDx=0;entryDy=0;labelBackgroundColor=default;strokeColor=default;align=center;verticalAlign=middle;fontFamily=Helvetica;fontSize=11;fontColor=#FFFFFF;endArrow=none;" parent="1" source="Y-LkQrVHgWmDQBg6I4oN-7" target="Y-LkQrVHgWmDQBg6I4oN-60" edge="1">
          <mxGeometry relative="1" as="geometry" />
        </mxCell>
        <mxCell id="Y-LkQrVHgWmDQBg6I4oN-7" value="Offers" style="whiteSpace=wrap;html=1;align=center;fontColor=default;fillColor=#FFCCFF;strokeColor=#A50040;" parent="1" vertex="1">
          <mxGeometry x="-1152.5" y="1532.5" width="100" height="40" as="geometry" />
        </mxCell>
        <mxCell id="BwEoltWDEDMI9O7-S3fw-42" style="edgeStyle=none;shape=connector;rounded=0;orthogonalLoop=1;jettySize=auto;html=1;exitX=0.5;exitY=1;exitDx=0;exitDy=0;entryX=0.5;entryY=0;entryDx=0;entryDy=0;labelBackgroundColor=default;strokeColor=default;align=center;verticalAlign=middle;fontFamily=Helvetica;fontSize=11;fontColor=#FFFFFF;endArrow=none;" parent="1" source="Y-LkQrVHgWmDQBg6I4oN-8" target="Y-LkQrVHgWmDQBg6I4oN-25" edge="1">
          <mxGeometry relative="1" as="geometry" />
        </mxCell>
        <mxCell id="BwEoltWDEDMI9O7-S3fw-44" style="edgeStyle=none;shape=connector;rounded=0;orthogonalLoop=1;jettySize=auto;html=1;exitX=1;exitY=0;exitDx=0;exitDy=0;entryX=0;entryY=0.5;entryDx=0;entryDy=0;labelBackgroundColor=default;strokeColor=default;align=center;verticalAlign=middle;fontFamily=Helvetica;fontSize=11;fontColor=#FFFFFF;endArrow=none;" parent="1" source="Y-LkQrVHgWmDQBg6I4oN-8" target="Y-LkQrVHgWmDQBg6I4oN-66" edge="1">
          <mxGeometry relative="1" as="geometry" />
        </mxCell>
        <mxCell id="BwEoltWDEDMI9O7-S3fw-45" style="edgeStyle=none;shape=connector;rounded=0;orthogonalLoop=1;jettySize=auto;html=1;exitX=0.75;exitY=0;exitDx=0;exitDy=0;entryX=0;entryY=1;entryDx=0;entryDy=0;labelBackgroundColor=default;strokeColor=default;align=center;verticalAlign=middle;fontFamily=Helvetica;fontSize=11;fontColor=#FFFFFF;endArrow=none;" parent="1" source="Y-LkQrVHgWmDQBg6I4oN-8" target="Y-LkQrVHgWmDQBg6I4oN-69" edge="1">
          <mxGeometry relative="1" as="geometry" />
        </mxCell>
        <mxCell id="BwEoltWDEDMI9O7-S3fw-46" style="edgeStyle=none;shape=connector;rounded=0;orthogonalLoop=1;jettySize=auto;html=1;exitX=0.5;exitY=0;exitDx=0;exitDy=0;entryX=0.5;entryY=1;entryDx=0;entryDy=0;labelBackgroundColor=default;strokeColor=default;align=center;verticalAlign=middle;fontFamily=Helvetica;fontSize=11;fontColor=#FFFFFF;endArrow=none;" parent="1" source="Y-LkQrVHgWmDQBg6I4oN-8" target="Y-LkQrVHgWmDQBg6I4oN-65" edge="1">
          <mxGeometry relative="1" as="geometry" />
        </mxCell>
        <mxCell id="BwEoltWDEDMI9O7-S3fw-47" style="edgeStyle=none;shape=connector;rounded=0;orthogonalLoop=1;jettySize=auto;html=1;exitX=0.25;exitY=0;exitDx=0;exitDy=0;entryX=1;entryY=0.5;entryDx=0;entryDy=0;labelBackgroundColor=default;strokeColor=default;align=center;verticalAlign=middle;fontFamily=Helvetica;fontSize=11;fontColor=#FFFFFF;endArrow=none;" parent="1" source="Y-LkQrVHgWmDQBg6I4oN-8" target="Y-LkQrVHgWmDQBg6I4oN-64" edge="1">
          <mxGeometry relative="1" as="geometry" />
        </mxCell>
        <mxCell id="BwEoltWDEDMI9O7-S3fw-48" style="edgeStyle=none;shape=connector;rounded=0;orthogonalLoop=1;jettySize=auto;html=1;exitX=0;exitY=0;exitDx=0;exitDy=0;entryX=1;entryY=0.5;entryDx=0;entryDy=0;labelBackgroundColor=default;strokeColor=default;align=center;verticalAlign=middle;fontFamily=Helvetica;fontSize=11;fontColor=#FFFFFF;endArrow=none;" parent="1" source="Y-LkQrVHgWmDQBg6I4oN-8" target="Y-LkQrVHgWmDQBg6I4oN-68" edge="1">
          <mxGeometry relative="1" as="geometry" />
        </mxCell>
        <mxCell id="Y-LkQrVHgWmDQBg6I4oN-8" value="Customers" style="whiteSpace=wrap;html=1;align=center;fontColor=default;fillColor=#CCFF99;" parent="1" vertex="1">
          <mxGeometry x="-1540" y="1302.75" width="100" height="40" as="geometry" />
        </mxCell>
        <mxCell id="BwEoltWDEDMI9O7-S3fw-37" style="edgeStyle=none;shape=connector;rounded=0;orthogonalLoop=1;jettySize=auto;html=1;exitX=0.75;exitY=0;exitDx=0;exitDy=0;entryX=0;entryY=0;entryDx=0;entryDy=0;labelBackgroundColor=default;strokeColor=default;align=center;verticalAlign=middle;fontFamily=Helvetica;fontSize=11;fontColor=#FFFFFF;endArrow=none;" parent="1" source="Y-LkQrVHgWmDQBg6I4oN-9" target="Y-LkQrVHgWmDQBg6I4oN-71" edge="1">
          <mxGeometry relative="1" as="geometry" />
        </mxCell>
        <mxCell id="BwEoltWDEDMI9O7-S3fw-38" style="edgeStyle=none;shape=connector;rounded=0;orthogonalLoop=1;jettySize=auto;html=1;exitX=1;exitY=0.25;exitDx=0;exitDy=0;entryX=0;entryY=0.5;entryDx=0;entryDy=0;labelBackgroundColor=default;strokeColor=default;align=center;verticalAlign=middle;fontFamily=Helvetica;fontSize=11;fontColor=#FFFFFF;endArrow=none;" parent="1" source="Y-LkQrVHgWmDQBg6I4oN-9" target="Y-LkQrVHgWmDQBg6I4oN-73" edge="1">
          <mxGeometry relative="1" as="geometry" />
        </mxCell>
        <mxCell id="BwEoltWDEDMI9O7-S3fw-39" style="edgeStyle=none;shape=connector;rounded=0;orthogonalLoop=1;jettySize=auto;html=1;exitX=0.25;exitY=0;exitDx=0;exitDy=0;entryX=1;entryY=0.5;entryDx=0;entryDy=0;labelBackgroundColor=default;strokeColor=default;align=center;verticalAlign=middle;fontFamily=Helvetica;fontSize=11;fontColor=#FFFFFF;endArrow=none;" parent="1" source="Y-LkQrVHgWmDQBg6I4oN-9" target="Y-LkQrVHgWmDQBg6I4oN-26" edge="1">
          <mxGeometry relative="1" as="geometry" />
        </mxCell>
        <mxCell id="BwEoltWDEDMI9O7-S3fw-40" style="edgeStyle=none;shape=connector;rounded=0;orthogonalLoop=1;jettySize=auto;html=1;entryX=1;entryY=0.5;entryDx=0;entryDy=0;labelBackgroundColor=default;strokeColor=default;align=center;verticalAlign=middle;fontFamily=Helvetica;fontSize=11;fontColor=#FFFFFF;endArrow=none;exitX=0;exitY=0.5;exitDx=0;exitDy=0;" parent="1" source="Y-LkQrVHgWmDQBg6I4oN-9" target="Y-LkQrVHgWmDQBg6I4oN-72" edge="1">
          <mxGeometry relative="1" as="geometry">
            <mxPoint x="-1215" y="1577.5" as="sourcePoint" />
          </mxGeometry>
        </mxCell>
        <mxCell id="Y-LkQrVHgWmDQBg6I4oN-9" value="Transactions" style="whiteSpace=wrap;html=1;align=center;fillColor=#b1ddf0;strokeColor=#10739e;" parent="1" vertex="1">
          <mxGeometry x="-1185" y="1208" width="100" height="40" as="geometry" />
        </mxCell>
        <mxCell id="BwEoltWDEDMI9O7-S3fw-114" style="edgeStyle=none;shape=connector;rounded=0;orthogonalLoop=1;jettySize=auto;html=1;exitX=0;exitY=1;exitDx=0;exitDy=0;entryX=1;entryY=1;entryDx=0;entryDy=0;labelBackgroundColor=default;strokeColor=default;align=center;verticalAlign=middle;fontFamily=Helvetica;fontSize=11;fontColor=#FFFFFF;endArrow=none;" parent="1" source="Y-LkQrVHgWmDQBg6I4oN-10" target="Y-LkQrVHgWmDQBg6I4oN-76" edge="1">
          <mxGeometry relative="1" as="geometry" />
        </mxCell>
        <mxCell id="BwEoltWDEDMI9O7-S3fw-115" style="edgeStyle=none;shape=connector;rounded=0;orthogonalLoop=1;jettySize=auto;html=1;exitX=0;exitY=0.5;exitDx=0;exitDy=0;entryX=1;entryY=1;entryDx=0;entryDy=0;labelBackgroundColor=default;strokeColor=default;align=center;verticalAlign=middle;fontFamily=Helvetica;fontSize=11;fontColor=#FFFFFF;endArrow=none;" parent="1" source="Y-LkQrVHgWmDQBg6I4oN-10" target="Y-LkQrVHgWmDQBg6I4oN-75" edge="1">
          <mxGeometry relative="1" as="geometry" />
        </mxCell>
        <mxCell id="BwEoltWDEDMI9O7-S3fw-116" style="edgeStyle=none;shape=connector;rounded=0;orthogonalLoop=1;jettySize=auto;html=1;exitX=0;exitY=0;exitDx=0;exitDy=0;entryX=0.5;entryY=1;entryDx=0;entryDy=0;labelBackgroundColor=default;strokeColor=default;align=center;verticalAlign=middle;fontFamily=Helvetica;fontSize=11;fontColor=#FFFFFF;endArrow=none;" parent="1" source="Y-LkQrVHgWmDQBg6I4oN-10" target="biQodX1SEKOZoz9GVlzy-99" edge="1">
          <mxGeometry relative="1" as="geometry">
            <mxPoint x="-1602" y="750" as="targetPoint" />
          </mxGeometry>
        </mxCell>
        <mxCell id="BwEoltWDEDMI9O7-S3fw-119" style="edgeStyle=none;shape=connector;rounded=0;orthogonalLoop=1;jettySize=auto;html=1;exitX=1;exitY=0.5;exitDx=0;exitDy=0;entryX=0;entryY=0.5;entryDx=0;entryDy=0;labelBackgroundColor=default;strokeColor=default;align=center;verticalAlign=middle;fontFamily=Helvetica;fontSize=11;fontColor=#FFFFFF;endArrow=none;" parent="1" source="Y-LkQrVHgWmDQBg6I4oN-10" target="Y-LkQrVHgWmDQBg6I4oN-78" edge="1">
          <mxGeometry relative="1" as="geometry" />
        </mxCell>
        <mxCell id="BwEoltWDEDMI9O7-S3fw-120" style="edgeStyle=none;shape=connector;rounded=0;orthogonalLoop=1;jettySize=auto;html=1;exitX=0.75;exitY=1;exitDx=0;exitDy=0;entryX=0.5;entryY=0;entryDx=0;entryDy=0;labelBackgroundColor=default;strokeColor=default;align=center;verticalAlign=middle;fontFamily=Helvetica;fontSize=11;fontColor=#FFFFFF;endArrow=none;" parent="1" source="Y-LkQrVHgWmDQBg6I4oN-10" target="Y-LkQrVHgWmDQBg6I4oN-77" edge="1">
          <mxGeometry relative="1" as="geometry" />
        </mxCell>
        <mxCell id="BwEoltWDEDMI9O7-S3fw-121" style="edgeStyle=none;shape=connector;rounded=0;orthogonalLoop=1;jettySize=auto;html=1;exitX=0.25;exitY=1;exitDx=0;exitDy=0;labelBackgroundColor=default;strokeColor=default;align=center;verticalAlign=middle;fontFamily=Helvetica;fontSize=11;fontColor=#FFFFFF;endArrow=none;" parent="1" source="Y-LkQrVHgWmDQBg6I4oN-10" target="Y-LkQrVHgWmDQBg6I4oN-80" edge="1">
          <mxGeometry relative="1" as="geometry">
            <mxPoint x="-1422" y="860" as="targetPoint" />
          </mxGeometry>
        </mxCell>
        <mxCell id="Y-LkQrVHgWmDQBg6I4oN-10" value="Employee" style="whiteSpace=wrap;html=1;align=center;fontColor=default;fillColor=#E5CCFF;" parent="1" vertex="1">
          <mxGeometry x="-1512" y="780" width="100" height="40" as="geometry" />
        </mxCell>
        <mxCell id="BwEoltWDEDMI9O7-S3fw-19" style="edgeStyle=none;shape=connector;rounded=0;orthogonalLoop=1;jettySize=auto;html=1;exitX=0;exitY=0.5;exitDx=0;exitDy=0;entryX=1;entryY=0.5;entryDx=0;entryDy=0;labelBackgroundColor=default;strokeColor=default;align=center;verticalAlign=middle;fontFamily=Helvetica;fontSize=11;fontColor=#FFFFFF;endArrow=none;" parent="1" source="Y-LkQrVHgWmDQBg6I4oN-11" target="Y-LkQrVHgWmDQBg6I4oN-86" edge="1">
          <mxGeometry relative="1" as="geometry">
            <Array as="points" />
          </mxGeometry>
        </mxCell>
        <mxCell id="BwEoltWDEDMI9O7-S3fw-20" style="edgeStyle=none;shape=connector;rounded=0;orthogonalLoop=1;jettySize=auto;html=1;exitX=0;exitY=0;exitDx=0;exitDy=0;entryX=1;entryY=1;entryDx=0;entryDy=0;labelBackgroundColor=default;strokeColor=default;align=center;verticalAlign=middle;fontFamily=Helvetica;fontSize=11;fontColor=#FFFFFF;endArrow=none;" parent="1" source="Y-LkQrVHgWmDQBg6I4oN-11" target="Y-LkQrVHgWmDQBg6I4oN-85" edge="1">
          <mxGeometry relative="1" as="geometry">
            <Array as="points" />
          </mxGeometry>
        </mxCell>
        <mxCell id="BwEoltWDEDMI9O7-S3fw-21" style="edgeStyle=none;shape=connector;rounded=0;orthogonalLoop=1;jettySize=auto;html=1;exitX=0.25;exitY=0;exitDx=0;exitDy=0;entryX=0.5;entryY=1;entryDx=0;entryDy=0;labelBackgroundColor=default;strokeColor=default;align=center;verticalAlign=middle;fontFamily=Helvetica;fontSize=11;fontColor=#FFFFFF;endArrow=none;" parent="1" source="Y-LkQrVHgWmDQBg6I4oN-11" target="Y-LkQrVHgWmDQBg6I4oN-28" edge="1">
          <mxGeometry relative="1" as="geometry" />
        </mxCell>
        <mxCell id="BwEoltWDEDMI9O7-S3fw-22" style="edgeStyle=none;shape=connector;rounded=0;orthogonalLoop=1;jettySize=auto;html=1;entryX=0.5;entryY=1;entryDx=0;entryDy=0;labelBackgroundColor=default;strokeColor=default;align=center;verticalAlign=middle;fontFamily=Helvetica;fontSize=11;fontColor=#FFFFFF;endArrow=none;" parent="1" source="Y-LkQrVHgWmDQBg6I4oN-11" target="Y-LkQrVHgWmDQBg6I4oN-82" edge="1">
          <mxGeometry relative="1" as="geometry" />
        </mxCell>
        <mxCell id="BwEoltWDEDMI9O7-S3fw-23" style="edgeStyle=none;shape=connector;rounded=0;orthogonalLoop=1;jettySize=auto;html=1;exitX=1;exitY=0.75;exitDx=0;exitDy=0;entryX=0;entryY=0.5;entryDx=0;entryDy=0;labelBackgroundColor=default;strokeColor=default;align=center;verticalAlign=middle;fontFamily=Helvetica;fontSize=11;fontColor=#FFFFFF;endArrow=none;" parent="1" source="Y-LkQrVHgWmDQBg6I4oN-11" target="Y-LkQrVHgWmDQBg6I4oN-87" edge="1">
          <mxGeometry relative="1" as="geometry" />
        </mxCell>
        <mxCell id="BwEoltWDEDMI9O7-S3fw-25" style="edgeStyle=none;shape=connector;rounded=0;orthogonalLoop=1;jettySize=auto;html=1;exitX=0;exitY=1;exitDx=0;exitDy=0;entryX=0.5;entryY=0;entryDx=0;entryDy=0;labelBackgroundColor=default;strokeColor=default;align=center;verticalAlign=middle;fontFamily=Helvetica;fontSize=11;fontColor=#FFFFFF;endArrow=none;" parent="1" source="Y-LkQrVHgWmDQBg6I4oN-11" target="Y-LkQrVHgWmDQBg6I4oN-88" edge="1">
          <mxGeometry relative="1" as="geometry" />
        </mxCell>
        <mxCell id="BwEoltWDEDMI9O7-S3fw-26" style="edgeStyle=none;shape=connector;rounded=0;orthogonalLoop=1;jettySize=auto;html=1;exitX=1;exitY=1;exitDx=0;exitDy=0;entryX=0.5;entryY=0;entryDx=0;entryDy=0;labelBackgroundColor=default;strokeColor=default;align=center;verticalAlign=middle;fontFamily=Helvetica;fontSize=11;fontColor=#FFFFFF;endArrow=none;" parent="1" source="Y-LkQrVHgWmDQBg6I4oN-11" target="Y-LkQrVHgWmDQBg6I4oN-89" edge="1">
          <mxGeometry relative="1" as="geometry" />
        </mxCell>
        <mxCell id="BwEoltWDEDMI9O7-S3fw-27" style="edgeStyle=none;shape=connector;rounded=0;orthogonalLoop=1;jettySize=auto;html=1;exitX=0.75;exitY=1;exitDx=0;exitDy=0;entryX=0;entryY=0;entryDx=0;entryDy=0;labelBackgroundColor=default;strokeColor=default;align=center;verticalAlign=middle;fontFamily=Helvetica;fontSize=11;fontColor=#FFFFFF;endArrow=none;" parent="1" source="Y-LkQrVHgWmDQBg6I4oN-11" target="Y-LkQrVHgWmDQBg6I4oN-90" edge="1">
          <mxGeometry relative="1" as="geometry" />
        </mxCell>
        <mxCell id="BwEoltWDEDMI9O7-S3fw-28" style="edgeStyle=none;shape=connector;rounded=0;orthogonalLoop=1;jettySize=auto;html=1;exitX=0.25;exitY=1;exitDx=0;exitDy=0;entryX=1;entryY=0;entryDx=0;entryDy=0;labelBackgroundColor=default;strokeColor=default;align=center;verticalAlign=middle;fontFamily=Helvetica;fontSize=11;fontColor=#FFFFFF;endArrow=none;" parent="1" source="Y-LkQrVHgWmDQBg6I4oN-11" target="Y-LkQrVHgWmDQBg6I4oN-91" edge="1">
          <mxGeometry relative="1" as="geometry" />
        </mxCell>
        <mxCell id="Y-LkQrVHgWmDQBg6I4oN-11" value="Films" style="whiteSpace=wrap;html=1;align=center;fillColor=#bac8d3;strokeColor=#23445d;" parent="1" vertex="1">
          <mxGeometry x="-1090" y="1837.5" width="100" height="40" as="geometry" />
        </mxCell>
        <mxCell id="BwEoltWDEDMI9O7-S3fw-15" style="edgeStyle=none;shape=connector;rounded=0;orthogonalLoop=1;jettySize=auto;html=1;exitX=1;exitY=0.75;exitDx=0;exitDy=0;entryX=1;entryY=0.5;entryDx=0;entryDy=0;labelBackgroundColor=default;strokeColor=default;align=center;verticalAlign=middle;fontFamily=Helvetica;fontSize=11;fontColor=#FFFFFF;endArrow=none;" parent="1" source="Y-LkQrVHgWmDQBg6I4oN-12" target="Y-LkQrVHgWmDQBg6I4oN-95" edge="1">
          <mxGeometry relative="1" as="geometry" />
        </mxCell>
        <mxCell id="BwEoltWDEDMI9O7-S3fw-16" style="edgeStyle=none;shape=connector;rounded=0;orthogonalLoop=1;jettySize=auto;html=1;exitX=0.5;exitY=0;exitDx=0;exitDy=0;entryX=0.5;entryY=1;entryDx=0;entryDy=0;labelBackgroundColor=default;strokeColor=default;align=center;verticalAlign=middle;fontFamily=Helvetica;fontSize=11;fontColor=#FFFFFF;endArrow=none;" parent="1" source="Y-LkQrVHgWmDQBg6I4oN-12" target="Y-LkQrVHgWmDQBg6I4oN-93" edge="1">
          <mxGeometry relative="1" as="geometry" />
        </mxCell>
        <mxCell id="BwEoltWDEDMI9O7-S3fw-17" style="edgeStyle=none;shape=connector;rounded=0;orthogonalLoop=1;jettySize=auto;html=1;exitX=0.75;exitY=0;exitDx=0;exitDy=0;entryX=0.5;entryY=1;entryDx=0;entryDy=0;labelBackgroundColor=default;strokeColor=default;align=center;verticalAlign=middle;fontFamily=Helvetica;fontSize=11;fontColor=#FFFFFF;endArrow=none;" parent="1" source="Y-LkQrVHgWmDQBg6I4oN-12" target="Y-LkQrVHgWmDQBg6I4oN-29" edge="1">
          <mxGeometry relative="1" as="geometry" />
        </mxCell>
        <mxCell id="BwEoltWDEDMI9O7-S3fw-18" style="edgeStyle=none;shape=connector;rounded=0;orthogonalLoop=1;jettySize=auto;html=1;exitX=0.25;exitY=0;exitDx=0;exitDy=0;entryX=0.5;entryY=1;entryDx=0;entryDy=0;labelBackgroundColor=default;strokeColor=default;align=center;verticalAlign=middle;fontFamily=Helvetica;fontSize=11;fontColor=#FFFFFF;endArrow=none;" parent="1" source="Y-LkQrVHgWmDQBg6I4oN-12" target="Y-LkQrVHgWmDQBg6I4oN-94" edge="1">
          <mxGeometry relative="1" as="geometry">
            <Array as="points" />
          </mxGeometry>
        </mxCell>
        <mxCell id="Y-LkQrVHgWmDQBg6I4oN-12" value="Licenses" style="whiteSpace=wrap;html=1;align=center;fillColor=#CCFF99;fontColor=default;" parent="1" vertex="1">
          <mxGeometry x="-1132" y="160" width="100" height="40" as="geometry" />
        </mxCell>
        <mxCell id="BwEoltWDEDMI9O7-S3fw-29" style="edgeStyle=none;shape=connector;rounded=0;orthogonalLoop=1;jettySize=auto;html=1;exitX=0;exitY=0.5;exitDx=0;exitDy=0;entryX=1;entryY=0.5;entryDx=0;entryDy=0;labelBackgroundColor=default;strokeColor=default;align=center;verticalAlign=middle;fontFamily=Helvetica;fontSize=11;fontColor=#FFFFFF;endArrow=none;" parent="1" source="Y-LkQrVHgWmDQBg6I4oN-13" target="Y-LkQrVHgWmDQBg6I4oN-30" edge="1">
          <mxGeometry relative="1" as="geometry" />
        </mxCell>
        <mxCell id="BwEoltWDEDMI9O7-S3fw-31" style="edgeStyle=none;shape=connector;rounded=0;orthogonalLoop=1;jettySize=auto;html=1;exitX=0.75;exitY=0;exitDx=0;exitDy=0;entryX=0;entryY=0.5;entryDx=0;entryDy=0;labelBackgroundColor=default;strokeColor=default;align=center;verticalAlign=middle;fontFamily=Helvetica;fontSize=11;fontColor=#FFFFFF;endArrow=none;" parent="1" source="Y-LkQrVHgWmDQBg6I4oN-13" target="Y-LkQrVHgWmDQBg6I4oN-96" edge="1">
          <mxGeometry relative="1" as="geometry" />
        </mxCell>
        <mxCell id="Y-LkQrVHgWmDQBg6I4oN-13" value="Categories" style="whiteSpace=wrap;html=1;align=center;fillColor=#b0e3e6;strokeColor=#0e8088;" parent="1" vertex="1">
          <mxGeometry x="-1090" y="2105" width="100" height="40" as="geometry" />
        </mxCell>
        <mxCell id="BwEoltWDEDMI9O7-S3fw-101" style="edgeStyle=none;shape=connector;rounded=0;orthogonalLoop=1;jettySize=auto;html=1;exitX=0;exitY=0.75;exitDx=0;exitDy=0;entryX=1;entryY=0.5;entryDx=0;entryDy=0;labelBackgroundColor=default;strokeColor=default;align=center;verticalAlign=middle;fontFamily=Helvetica;fontSize=11;fontColor=#FFFFFF;endArrow=none;" parent="1" source="Y-LkQrVHgWmDQBg6I4oN-14" target="zNO-vaTu2o3wKGik7Tly-1" edge="1">
          <mxGeometry relative="1" as="geometry">
            <mxPoint x="-1157" y="467.5" as="targetPoint" />
          </mxGeometry>
        </mxCell>
        <mxCell id="BwEoltWDEDMI9O7-S3fw-102" style="edgeStyle=none;shape=connector;rounded=0;orthogonalLoop=1;jettySize=auto;html=1;exitX=1;exitY=0.75;exitDx=0;exitDy=0;entryX=0;entryY=0.5;entryDx=0;entryDy=0;labelBackgroundColor=default;strokeColor=default;align=center;verticalAlign=middle;fontFamily=Helvetica;fontSize=11;fontColor=#FFFFFF;endArrow=none;" parent="1" source="Y-LkQrVHgWmDQBg6I4oN-14" target="Y-LkQrVHgWmDQBg6I4oN-115" edge="1">
          <mxGeometry relative="1" as="geometry" />
        </mxCell>
        <mxCell id="BwEoltWDEDMI9O7-S3fw-103" style="edgeStyle=none;shape=connector;rounded=0;orthogonalLoop=1;jettySize=auto;html=1;exitX=0.25;exitY=1;exitDx=0;exitDy=0;entryX=1;entryY=0;entryDx=0;entryDy=0;labelBackgroundColor=default;strokeColor=default;align=center;verticalAlign=middle;fontFamily=Helvetica;fontSize=11;fontColor=#FFFFFF;endArrow=none;" parent="1" source="Y-LkQrVHgWmDQBg6I4oN-14" target="Y-LkQrVHgWmDQBg6I4oN-100" edge="1">
          <mxGeometry relative="1" as="geometry" />
        </mxCell>
        <mxCell id="BwEoltWDEDMI9O7-S3fw-104" style="edgeStyle=none;shape=connector;rounded=0;orthogonalLoop=1;jettySize=auto;html=1;exitX=0.75;exitY=1;exitDx=0;exitDy=0;entryX=0;entryY=0;entryDx=0;entryDy=0;labelBackgroundColor=default;strokeColor=default;align=center;verticalAlign=middle;fontFamily=Helvetica;fontSize=11;fontColor=#FFFFFF;endArrow=none;" parent="1" source="Y-LkQrVHgWmDQBg6I4oN-14" target="Y-LkQrVHgWmDQBg6I4oN-99" edge="1">
          <mxGeometry relative="1" as="geometry" />
        </mxCell>
        <mxCell id="BwEoltWDEDMI9O7-S3fw-105" style="edgeStyle=none;shape=connector;rounded=0;orthogonalLoop=1;jettySize=auto;html=1;exitX=1;exitY=0;exitDx=0;exitDy=0;entryX=0;entryY=0.5;entryDx=0;entryDy=0;labelBackgroundColor=default;strokeColor=default;align=center;verticalAlign=middle;fontFamily=Helvetica;fontSize=11;fontColor=#FFFFFF;endArrow=none;" parent="1" source="Y-LkQrVHgWmDQBg6I4oN-14" target="Y-LkQrVHgWmDQBg6I4oN-102" edge="1">
          <mxGeometry relative="1" as="geometry" />
        </mxCell>
        <mxCell id="Y-LkQrVHgWmDQBg6I4oN-14" value="VS Cinema&lt;br&gt;Branches" style="whiteSpace=wrap;html=1;align=center;fillColor=#b1ddf0;strokeColor=#10739e;" parent="1" vertex="1">
          <mxGeometry x="-1132" y="425" width="100" height="40" as="geometry" />
        </mxCell>
        <mxCell id="BwEoltWDEDMI9O7-S3fw-52" style="edgeStyle=none;shape=connector;rounded=0;orthogonalLoop=1;jettySize=auto;html=1;exitX=0;exitY=1;exitDx=0;exitDy=0;entryX=1;entryY=0;entryDx=0;entryDy=0;labelBackgroundColor=default;strokeColor=default;align=center;verticalAlign=middle;fontFamily=Helvetica;fontSize=11;fontColor=#FFFFFF;endArrow=none;" parent="1" source="Y-LkQrVHgWmDQBg6I4oN-15" target="Y-LkQrVHgWmDQBg6I4oN-105" edge="1">
          <mxGeometry relative="1" as="geometry" />
        </mxCell>
        <mxCell id="BwEoltWDEDMI9O7-S3fw-53" style="edgeStyle=none;shape=connector;rounded=0;orthogonalLoop=1;jettySize=auto;html=1;exitX=0.25;exitY=1;exitDx=0;exitDy=0;entryX=1;entryY=0;entryDx=0;entryDy=0;labelBackgroundColor=default;strokeColor=default;align=center;verticalAlign=middle;fontFamily=Helvetica;fontSize=11;fontColor=#FFFFFF;endArrow=none;" parent="1" source="Y-LkQrVHgWmDQBg6I4oN-15" target="Y-LkQrVHgWmDQBg6I4oN-106" edge="1">
          <mxGeometry relative="1" as="geometry" />
        </mxCell>
        <mxCell id="BwEoltWDEDMI9O7-S3fw-54" style="edgeStyle=none;shape=connector;rounded=0;orthogonalLoop=1;jettySize=auto;html=1;exitX=0;exitY=0.5;exitDx=0;exitDy=0;entryX=1;entryY=0.5;entryDx=0;entryDy=0;labelBackgroundColor=default;strokeColor=default;align=center;verticalAlign=middle;fontFamily=Helvetica;fontSize=11;fontColor=#FFFFFF;endArrow=none;" parent="1" source="Y-LkQrVHgWmDQBg6I4oN-15" target="Y-LkQrVHgWmDQBg6I4oN-107" edge="1">
          <mxGeometry relative="1" as="geometry">
            <Array as="points" />
          </mxGeometry>
        </mxCell>
        <mxCell id="BwEoltWDEDMI9O7-S3fw-55" style="edgeStyle=none;shape=connector;rounded=0;orthogonalLoop=1;jettySize=auto;html=1;exitX=0.75;exitY=1;exitDx=0;exitDy=0;labelBackgroundColor=default;strokeColor=default;align=center;verticalAlign=middle;fontFamily=Helvetica;fontSize=11;fontColor=#FFFFFF;endArrow=none;entryX=0;entryY=0.5;entryDx=0;entryDy=0;" parent="1" source="Y-LkQrVHgWmDQBg6I4oN-15" target="Y-LkQrVHgWmDQBg6I4oN-32" edge="1">
          <mxGeometry relative="1" as="geometry">
            <mxPoint x="-1525" y="1980" as="targetPoint" />
          </mxGeometry>
        </mxCell>
        <mxCell id="BwEoltWDEDMI9O7-S3fw-56" style="edgeStyle=none;shape=connector;rounded=0;orthogonalLoop=1;jettySize=auto;html=1;exitX=0.5;exitY=1;exitDx=0;exitDy=0;labelBackgroundColor=default;strokeColor=default;align=center;verticalAlign=middle;fontFamily=Helvetica;fontSize=11;fontColor=#FFFFFF;endArrow=none;" parent="1" source="Y-LkQrVHgWmDQBg6I4oN-15" target="Y-LkQrVHgWmDQBg6I4oN-108" edge="1">
          <mxGeometry relative="1" as="geometry" />
        </mxCell>
        <mxCell id="Y-LkQrVHgWmDQBg6I4oN-15" value="Theme - Stores" style="whiteSpace=wrap;html=1;align=center;fillColor=#FF9933;strokeColor=#b46504;" parent="1" vertex="1">
          <mxGeometry x="-1470" y="2000" width="100" height="40" as="geometry" />
        </mxCell>
        <mxCell id="BwEoltWDEDMI9O7-S3fw-110" style="edgeStyle=none;shape=connector;rounded=0;orthogonalLoop=1;jettySize=auto;html=1;entryX=1;entryY=0.5;entryDx=0;entryDy=0;labelBackgroundColor=default;strokeColor=default;align=center;verticalAlign=middle;fontFamily=Helvetica;fontSize=11;fontColor=#FFFFFF;endArrow=none;exitX=0;exitY=0.5;exitDx=0;exitDy=0;" parent="1" source="Y-LkQrVHgWmDQBg6I4oN-17" target="Y-LkQrVHgWmDQBg6I4oN-117" edge="1">
          <mxGeometry relative="1" as="geometry">
            <mxPoint x="-1532" y="424" as="sourcePoint" />
          </mxGeometry>
        </mxCell>
        <mxCell id="BwEoltWDEDMI9O7-S3fw-111" style="edgeStyle=none;shape=connector;rounded=0;orthogonalLoop=1;jettySize=auto;html=1;exitX=0;exitY=0.75;exitDx=0;exitDy=0;entryX=1;entryY=0.5;entryDx=0;entryDy=0;labelBackgroundColor=default;strokeColor=default;align=center;verticalAlign=middle;fontFamily=Helvetica;fontSize=11;fontColor=#FFFFFF;endArrow=none;" parent="1" source="Y-LkQrVHgWmDQBg6I4oN-17" target="Y-LkQrVHgWmDQBg6I4oN-34" edge="1">
          <mxGeometry relative="1" as="geometry">
            <mxPoint x="-1532" y="435" as="sourcePoint" />
          </mxGeometry>
        </mxCell>
        <mxCell id="BwEoltWDEDMI9O7-S3fw-112" style="edgeStyle=none;shape=connector;rounded=0;orthogonalLoop=1;jettySize=auto;html=1;exitX=0;exitY=1;exitDx=0;exitDy=0;entryX=1;entryY=0;entryDx=0;entryDy=0;labelBackgroundColor=default;strokeColor=default;align=center;verticalAlign=middle;fontFamily=Helvetica;fontSize=11;fontColor=#FFFFFF;endArrow=none;" parent="1" source="Y-LkQrVHgWmDQBg6I4oN-17" target="Y-LkQrVHgWmDQBg6I4oN-118" edge="1">
          <mxGeometry relative="1" as="geometry">
            <mxPoint x="-1532" y="457.5" as="sourcePoint" />
          </mxGeometry>
        </mxCell>
        <mxCell id="Y-LkQrVHgWmDQBg6I4oN-17" value="Departments" style="whiteSpace=wrap;html=1;align=center;fillColor=#FF9933;strokeColor=#10739e;" parent="1" vertex="1">
          <mxGeometry x="-1512" y="410" width="100" height="45" as="geometry" />
        </mxCell>
        <mxCell id="BwEoltWDEDMI9O7-S3fw-66" style="edgeStyle=none;shape=connector;rounded=0;orthogonalLoop=1;jettySize=auto;html=1;exitX=0.75;exitY=1;exitDx=0;exitDy=0;entryX=0.5;entryY=0;entryDx=0;entryDy=0;labelBackgroundColor=default;strokeColor=default;align=center;verticalAlign=middle;fontFamily=Helvetica;fontSize=11;fontColor=#FFFFFF;endArrow=none;" parent="1" source="Y-LkQrVHgWmDQBg6I4oN-18" target="Y-LkQrVHgWmDQBg6I4oN-35" edge="1">
          <mxGeometry relative="1" as="geometry" />
        </mxCell>
        <mxCell id="BwEoltWDEDMI9O7-S3fw-67" style="edgeStyle=none;shape=connector;rounded=0;orthogonalLoop=1;jettySize=auto;html=1;exitX=0.5;exitY=1;exitDx=0;exitDy=0;entryX=0.5;entryY=0;entryDx=0;entryDy=0;labelBackgroundColor=default;strokeColor=default;align=center;verticalAlign=middle;fontFamily=Helvetica;fontSize=11;fontColor=#FFFFFF;endArrow=none;" parent="1" source="Y-LkQrVHgWmDQBg6I4oN-18" target="Y-LkQrVHgWmDQBg6I4oN-124" edge="1">
          <mxGeometry relative="1" as="geometry" />
        </mxCell>
        <mxCell id="BwEoltWDEDMI9O7-S3fw-70" style="edgeStyle=none;shape=connector;rounded=0;orthogonalLoop=1;jettySize=auto;html=1;exitX=0.5;exitY=0;exitDx=0;exitDy=0;entryX=1;entryY=1;entryDx=0;entryDy=0;labelBackgroundColor=default;strokeColor=default;align=center;verticalAlign=middle;fontFamily=Helvetica;fontSize=11;fontColor=#FFFFFF;endArrow=none;" parent="1" source="Y-LkQrVHgWmDQBg6I4oN-18" target="Y-LkQrVHgWmDQBg6I4oN-122" edge="1">
          <mxGeometry relative="1" as="geometry" />
        </mxCell>
        <mxCell id="BwEoltWDEDMI9O7-S3fw-71" style="edgeStyle=none;shape=connector;rounded=0;orthogonalLoop=1;jettySize=auto;html=1;exitX=0.25;exitY=0;exitDx=0;exitDy=0;entryX=1;entryY=1;entryDx=0;entryDy=0;labelBackgroundColor=default;strokeColor=default;align=center;verticalAlign=middle;fontFamily=Helvetica;fontSize=11;fontColor=#FFFFFF;endArrow=none;" parent="1" source="Y-LkQrVHgWmDQBg6I4oN-18" target="Y-LkQrVHgWmDQBg6I4oN-123" edge="1">
          <mxGeometry relative="1" as="geometry" />
        </mxCell>
        <mxCell id="Y-LkQrVHgWmDQBg6I4oN-18" value="Ticketing" style="whiteSpace=wrap;html=1;align=center;fillColor=#bac8d3;strokeColor=#23445d;" parent="1" vertex="1">
          <mxGeometry x="-985" y="1397.25" width="100" height="40" as="geometry" />
        </mxCell>
        <mxCell id="Y-LkQrVHgWmDQBg6I4oN-19" value="Supplier ID" style="ellipse;whiteSpace=wrap;align=center;fillColor=#330066;fontColor=#FFFFFF;fontStyle=4;" parent="1" vertex="1">
          <mxGeometry x="-1422" y="95" width="100" height="40" as="geometry" />
        </mxCell>
        <mxCell id="Y-LkQrVHgWmDQBg6I4oN-23" value="Membership ID" style="ellipse;whiteSpace=wrap;align=center;fontColor=#FFFFFF;fillColor=#006600;fontStyle=4" parent="1" vertex="1">
          <mxGeometry x="-1470" y="1800" width="100" height="40" as="geometry" />
        </mxCell>
        <mxCell id="Y-LkQrVHgWmDQBg6I4oN-25" value="Customer ID" style="ellipse;whiteSpace=wrap;align=center;fontColor=#ffffff;fillColor=#008a00;strokeColor=#005700;fontStyle=4" parent="1" vertex="1">
          <mxGeometry x="-1540" y="1357.25" width="100" height="40" as="geometry" />
        </mxCell>
        <mxCell id="Y-LkQrVHgWmDQBg6I4oN-26" value="Transaction ID" style="ellipse;whiteSpace=wrap;align=center;fontColor=#ffffff;fillColor=#0050ef;strokeColor=#001DBC;fontStyle=4" parent="1" vertex="1">
          <mxGeometry x="-1320" y="1142.75" width="100" height="40" as="geometry" />
        </mxCell>
        <mxCell id="Y-LkQrVHgWmDQBg6I4oN-28" value="Film No." style="ellipse;whiteSpace=wrap;align=center;fontColor=#ffffff;fillColor=#647687;strokeColor=#314354;fontStyle=4" parent="1" vertex="1">
          <mxGeometry x="-1200" y="1740" width="100" height="40" as="geometry" />
        </mxCell>
        <mxCell id="Y-LkQrVHgWmDQBg6I4oN-29" value="Secret Key" style="ellipse;whiteSpace=wrap;align=center;fontColor=#FFFFFF;fillColor=#006600;fontStyle=4" parent="1" vertex="1">
          <mxGeometry x="-1042" y="85" width="100" height="40" as="geometry" />
        </mxCell>
        <mxCell id="Y-LkQrVHgWmDQBg6I4oN-30" value="Genre No." style="ellipse;whiteSpace=wrap;align=center;fontColor=#FFFFFF;fillColor=#004C99;fontStyle=4" parent="1" vertex="1">
          <mxGeometry x="-1210" y="2105" width="100" height="40" as="geometry" />
        </mxCell>
        <mxCell id="Y-LkQrVHgWmDQBg6I4oN-32" value="Store No." style="ellipse;whiteSpace=wrap;align=center;fontColor=#FFFFFF;fillColor=#994C00;fontStyle=4" parent="1" vertex="1">
          <mxGeometry x="-1375" y="2065" width="100" height="40" as="geometry" />
        </mxCell>
        <mxCell id="Y-LkQrVHgWmDQBg6I4oN-34" value="Dept No." style="ellipse;whiteSpace=wrap;align=center;fontColor=#FFFFFF;fillColor=#994C00;fontStyle=4" parent="1" vertex="1">
          <mxGeometry x="-1662" y="437.5" width="100" height="40" as="geometry" />
        </mxCell>
        <mxCell id="Y-LkQrVHgWmDQBg6I4oN-35" value="Ticket ID." style="ellipse;whiteSpace=wrap;align=center;fontColor=#000000;fillColor=#7d8c9b;strokeColor=#000033;fontStyle=4" parent="1" vertex="1">
          <mxGeometry x="-925" y="1460" width="60" height="40" as="geometry" />
        </mxCell>
        <mxCell id="Y-LkQrVHgWmDQBg6I4oN-37" value="Name" style="ellipse;whiteSpace=wrap;html=1;align=center;fillColor=#330066;fontColor=#FFFFFF;" parent="1" vertex="1">
          <mxGeometry x="-1642" y="215" width="100" height="40" as="geometry" />
        </mxCell>
        <mxCell id="Y-LkQrVHgWmDQBg6I4oN-38" value="Address" style="ellipse;whiteSpace=wrap;html=1;align=center;fillColor=#330066;fontColor=#FFFFFF;" parent="1" vertex="1">
          <mxGeometry x="-1662" y="150" width="100" height="40" as="geometry" />
        </mxCell>
        <mxCell id="BwEoltWDEDMI9O7-S3fw-10" style="edgeStyle=none;shape=connector;rounded=0;orthogonalLoop=1;jettySize=auto;html=1;exitX=1;exitY=1;exitDx=0;exitDy=0;entryX=0;entryY=0.25;entryDx=0;entryDy=0;labelBackgroundColor=default;strokeColor=default;align=center;verticalAlign=middle;fontFamily=Helvetica;fontSize=11;fontColor=#FFFFFF;endArrow=none;" parent="1" source="Y-LkQrVHgWmDQBg6I4oN-39" target="Y-LkQrVHgWmDQBg6I4oN-1" edge="1">
          <mxGeometry relative="1" as="geometry" />
        </mxCell>
        <mxCell id="Y-LkQrVHgWmDQBg6I4oN-39" value="Email" style="ellipse;whiteSpace=wrap;html=1;align=center;fillColor=#330066;fontColor=#FFFFFF;" parent="1" vertex="1">
          <mxGeometry x="-1622" y="95" width="100" height="40" as="geometry" />
        </mxCell>
        <mxCell id="Y-LkQrVHgWmDQBg6I4oN-40" value="Telephone" style="ellipse;whiteSpace=wrap;html=1;align=center;fillColor=#330066;fontColor=#FFFFFF;" parent="1" vertex="1">
          <mxGeometry x="-1422" y="215" width="100" height="40" as="geometry" />
        </mxCell>
        <mxCell id="Y-LkQrVHgWmDQBg6I4oN-54" value="Type" style="ellipse;whiteSpace=wrap;html=1;align=center;fontColor=#FFFFFF;fillColor=#006600;" parent="1" vertex="1">
          <mxGeometry x="-1480" y="1855" width="100" height="40" as="geometry" />
        </mxCell>
        <mxCell id="Y-LkQrVHgWmDQBg6I4oN-55" value="Benefits" style="ellipse;whiteSpace=wrap;html=1;align=center;fontColor=#FFFFFF;fillColor=#006600;" parent="1" vertex="1">
          <mxGeometry x="-1690" y="1855" width="100" height="40" as="geometry" />
        </mxCell>
        <mxCell id="Y-LkQrVHgWmDQBg6I4oN-56" value="Start Date" style="ellipse;whiteSpace=wrap;html=1;align=center;fontColor=#FFFFFF;fillColor=#006600;" parent="1" vertex="1">
          <mxGeometry x="-1525" y="1910" width="100" height="40" as="geometry" />
        </mxCell>
        <mxCell id="Y-LkQrVHgWmDQBg6I4oN-57" value="End Date" style="ellipse;whiteSpace=wrap;html=1;align=center;fontColor=#FFFFFF;fillColor=#006600;" parent="1" vertex="1">
          <mxGeometry x="-1635" y="1910" width="100" height="40" as="geometry" />
        </mxCell>
        <mxCell id="Y-LkQrVHgWmDQBg6I4oN-58" value="Renewal Status" style="ellipse;whiteSpace=wrap;html=1;align=center;fontColor=#FFFFFF;fillColor=#006600;" parent="1" vertex="1">
          <mxGeometry x="-1480" y="1750" width="100" height="40" as="geometry" />
        </mxCell>
        <mxCell id="Y-LkQrVHgWmDQBg6I4oN-60" value="Offer Type" style="ellipse;whiteSpace=wrap;html=1;align=center;fontColor=#ffffff;fillColor=#d80073;strokeColor=#A50040;" parent="1" vertex="1">
          <mxGeometry x="-1070" y="1592.5" width="100" height="40" as="geometry" />
        </mxCell>
        <mxCell id="Y-LkQrVHgWmDQBg6I4oN-61" value="Terms &amp;amp; Conditions" style="ellipse;whiteSpace=wrap;html=1;align=center;fontColor=#ffffff;fillColor=#d80073;strokeColor=#A50040;" parent="1" vertex="1">
          <mxGeometry x="-1122" y="1640" width="100" height="40" as="geometry" />
        </mxCell>
        <mxCell id="Y-LkQrVHgWmDQBg6I4oN-62" value="Validity Period" style="ellipse;whiteSpace=wrap;html=1;align=center;fontColor=#ffffff;fillColor=#d80073;strokeColor=#A50040;" parent="1" vertex="1">
          <mxGeometry x="-1227" y="1592.5" width="70" height="40" as="geometry" />
        </mxCell>
        <mxCell id="Y-LkQrVHgWmDQBg6I4oN-63" value="Offer ID" style="ellipse;whiteSpace=wrap;align=center;fontColor=#ffffff;fillColor=#d80073;strokeColor=#A50040;fontStyle=4" parent="1" vertex="1">
          <mxGeometry x="-1232" y="1640" width="100" height="40" as="geometry" />
        </mxCell>
        <mxCell id="Y-LkQrVHgWmDQBg6I4oN-64" value="Name" style="ellipse;whiteSpace=wrap;html=1;align=center;fontColor=#ffffff;fillColor=#008a00;strokeColor=#005700;" parent="1" vertex="1">
          <mxGeometry x="-1640" y="1212.75" width="100" height="40" as="geometry" />
        </mxCell>
        <mxCell id="Y-LkQrVHgWmDQBg6I4oN-65" value="Email" style="ellipse;whiteSpace=wrap;html=1;align=center;fontColor=#ffffff;fillColor=#008a00;strokeColor=#005700;" parent="1" vertex="1">
          <mxGeometry x="-1560" y="1182.75" width="100" height="40" as="geometry" />
        </mxCell>
        <mxCell id="Y-LkQrVHgWmDQBg6I4oN-66" value="Telephone" style="ellipse;whiteSpace=wrap;html=1;align=center;fontColor=#ffffff;fillColor=#008a00;strokeColor=#005700;" parent="1" vertex="1">
          <mxGeometry x="-1430" y="1262.75" width="100" height="40" as="geometry" />
        </mxCell>
        <mxCell id="Y-LkQrVHgWmDQBg6I4oN-68" value="Transaction History" style="ellipse;whiteSpace=wrap;html=1;align=center;fontColor=#ffffff;fillColor=#008a00;strokeColor=#005700;" parent="1" vertex="1">
          <mxGeometry x="-1660" y="1262.75" width="100" height="40" as="geometry" />
        </mxCell>
        <mxCell id="Y-LkQrVHgWmDQBg6I4oN-69" value="Preferences (Genres)" style="ellipse;whiteSpace=wrap;html=1;align=center;fontColor=#ffffff;fillColor=#008a00;strokeColor=#005700;" parent="1" vertex="1">
          <mxGeometry x="-1470" y="1212.75" width="100" height="40" as="geometry" />
        </mxCell>
        <mxCell id="Y-LkQrVHgWmDQBg6I4oN-71" value="Date" style="ellipse;whiteSpace=wrap;html=1;align=center;fontColor=#ffffff;fillColor=#0050ef;strokeColor=#001DBC;" parent="1" vertex="1">
          <mxGeometry x="-1110" y="1128" width="100" height="40" as="geometry" />
        </mxCell>
        <mxCell id="Y-LkQrVHgWmDQBg6I4oN-72" value="Items &lt;br&gt;Purchased" style="ellipse;whiteSpace=wrap;html=1;align=center;fontColor=#ffffff;fillColor=#0050ef;strokeColor=#001DBC;" parent="1" vertex="1">
          <mxGeometry x="-1320" y="1200" width="100" height="40" as="geometry" />
        </mxCell>
        <mxCell id="Y-LkQrVHgWmDQBg6I4oN-73" value="Total Paid" style="ellipse;whiteSpace=wrap;html=1;align=center;fontColor=#ffffff;fillColor=#0050ef;strokeColor=#001DBC;" parent="1" vertex="1">
          <mxGeometry x="-1045" y="1168" width="100" height="40" as="geometry" />
        </mxCell>
        <mxCell id="Y-LkQrVHgWmDQBg6I4oN-75" value="Name" style="ellipse;whiteSpace=wrap;html=1;align=center;fontColor=#FFFFFF;fillColor=#330066;" parent="1" vertex="1">
          <mxGeometry x="-1662" y="770" width="100" height="40" as="geometry" />
        </mxCell>
        <mxCell id="Y-LkQrVHgWmDQBg6I4oN-76" value="Position" style="ellipse;whiteSpace=wrap;html=1;align=center;fontColor=#FFFFFF;fillColor=#330066;" parent="1" vertex="1">
          <mxGeometry x="-1662" y="840" width="100" height="40" as="geometry" />
        </mxCell>
        <mxCell id="Y-LkQrVHgWmDQBg6I4oN-77" value="Department" style="ellipse;whiteSpace=wrap;html=1;align=center;fontColor=#FFFFFF;fillColor=#330066;" parent="1" vertex="1">
          <mxGeometry x="-1402" y="890" width="100" height="40" as="geometry" />
        </mxCell>
        <mxCell id="Y-LkQrVHgWmDQBg6I4oN-78" value="Hire Date" style="ellipse;whiteSpace=wrap;html=1;align=center;fontColor=#FFFFFF;fillColor=#330066;" parent="1" vertex="1">
          <mxGeometry x="-1382" y="780" width="100" height="40" as="geometry" />
        </mxCell>
        <mxCell id="BwEoltWDEDMI9O7-S3fw-117" style="edgeStyle=none;shape=connector;rounded=0;orthogonalLoop=1;jettySize=auto;html=1;exitX=0;exitY=1;exitDx=0;exitDy=0;entryX=0.5;entryY=1;entryDx=0;entryDy=0;labelBackgroundColor=default;strokeColor=default;align=center;verticalAlign=middle;fontFamily=Helvetica;fontSize=11;fontColor=#FFFFFF;endArrow=none;" parent="1" source="Y-LkQrVHgWmDQBg6I4oN-79" target="Y-LkQrVHgWmDQBg6I4oN-10" edge="1">
          <mxGeometry relative="1" as="geometry" />
        </mxCell>
        <mxCell id="Y-LkQrVHgWmDQBg6I4oN-79" value="Email" style="ellipse;whiteSpace=wrap;html=1;align=center;fontColor=#FFFFFF;fillColor=#330066;" parent="1" vertex="1">
          <mxGeometry x="-1502" y="905" width="100" height="40" as="geometry" />
        </mxCell>
        <mxCell id="Y-LkQrVHgWmDQBg6I4oN-80" value="Telephone" style="ellipse;whiteSpace=wrap;html=1;align=center;fontColor=#FFFFFF;fillColor=#330066;" parent="1" vertex="1">
          <mxGeometry x="-1612" y="895" width="100" height="40" as="geometry" />
        </mxCell>
        <mxCell id="BwEoltWDEDMI9O7-S3fw-118" style="edgeStyle=none;shape=connector;rounded=0;orthogonalLoop=1;jettySize=auto;html=1;exitX=0;exitY=0.5;exitDx=0;exitDy=0;entryX=0.75;entryY=0;entryDx=0;entryDy=0;labelBackgroundColor=default;strokeColor=default;align=center;verticalAlign=middle;fontFamily=Helvetica;fontSize=11;fontColor=#FFFFFF;endArrow=none;" parent="1" source="Y-LkQrVHgWmDQBg6I4oN-81" target="Y-LkQrVHgWmDQBg6I4oN-10" edge="1">
          <mxGeometry relative="1" as="geometry" />
        </mxCell>
        <mxCell id="Y-LkQrVHgWmDQBg6I4oN-81" value="Salary" style="ellipse;whiteSpace=wrap;html=1;align=center;fontColor=#FFFFFF;fillColor=#330066;dashed=1;" parent="1" vertex="1">
          <mxGeometry x="-1370" y="730" width="100" height="40" as="geometry" />
        </mxCell>
        <mxCell id="Y-LkQrVHgWmDQBg6I4oN-82" value="Film Title" style="ellipse;whiteSpace=wrap;html=1;align=center;fontColor=#ffffff;fillColor=#647687;strokeColor=#314354;" parent="1" vertex="1">
          <mxGeometry x="-1095" y="1740" width="100" height="40" as="geometry" />
        </mxCell>
        <mxCell id="Y-LkQrVHgWmDQBg6I4oN-85" value="Description" style="ellipse;whiteSpace=wrap;html=1;align=center;fontColor=#ffffff;fillColor=#647687;strokeColor=#314354;" parent="1" vertex="1">
          <mxGeometry x="-1230" y="1790" width="100" height="40" as="geometry" />
        </mxCell>
        <mxCell id="Y-LkQrVHgWmDQBg6I4oN-86" value="Running Time" style="ellipse;whiteSpace=wrap;html=1;align=center;fontColor=#ffffff;fillColor=#647687;strokeColor=#314354;" parent="1" vertex="1">
          <mxGeometry x="-1232" y="1837.5" width="100" height="40" as="geometry" />
        </mxCell>
        <mxCell id="Y-LkQrVHgWmDQBg6I4oN-87" value="Year Released" style="ellipse;whiteSpace=wrap;html=1;align=center;fontColor=#ffffff;fillColor=#647687;strokeColor=#314354;" parent="1" vertex="1">
          <mxGeometry x="-960" y="1815" width="100" height="40" as="geometry" />
        </mxCell>
        <mxCell id="Y-LkQrVHgWmDQBg6I4oN-88" value="Director" style="ellipse;whiteSpace=wrap;html=1;align=center;fontColor=#ffffff;fillColor=#647687;strokeColor=#314354;" parent="1" vertex="1">
          <mxGeometry x="-1290" y="1907.5" width="100" height="40" as="geometry" />
        </mxCell>
        <mxCell id="Y-LkQrVHgWmDQBg6I4oN-89" value="Actors" style="ellipse;whiteSpace=wrap;html=1;align=center;fontColor=#ffffff;fillColor=#647687;strokeColor=#314354;" parent="1" vertex="1">
          <mxGeometry x="-965" y="1867.5" width="100" height="40" as="geometry" />
        </mxCell>
        <mxCell id="Y-LkQrVHgWmDQBg6I4oN-90" value="Category" style="ellipse;whiteSpace=wrap;html=1;align=center;fontColor=#ffffff;fillColor=#647687;strokeColor=#314354;" parent="1" vertex="1">
          <mxGeometry x="-965" y="1920" width="100" height="40" as="geometry" />
        </mxCell>
        <mxCell id="Y-LkQrVHgWmDQBg6I4oN-91" value="Restrictions" style="ellipse;whiteSpace=wrap;html=1;align=center;fontColor=#ffffff;fillColor=#647687;strokeColor=#314354;" parent="1" vertex="1">
          <mxGeometry x="-1185" y="1910" width="100" height="40" as="geometry" />
        </mxCell>
        <mxCell id="Y-LkQrVHgWmDQBg6I4oN-93" value="API" style="ellipse;whiteSpace=wrap;html=1;align=center;fontColor=#FFFFFF;fillColor=#006600;" parent="1" vertex="1">
          <mxGeometry x="-1152" y="100" width="100" height="40" as="geometry" />
        </mxCell>
        <mxCell id="Y-LkQrVHgWmDQBg6I4oN-94" value="Authorization&lt;br&gt;Date" style="ellipse;whiteSpace=wrap;html=1;align=center;fontColor=#FFFFFF;fillColor=#006600;" parent="1" vertex="1">
          <mxGeometry x="-1032" y="230" width="100" height="40" as="geometry" />
        </mxCell>
        <mxCell id="Y-LkQrVHgWmDQBg6I4oN-95" value="Expiry Date" style="ellipse;whiteSpace=wrap;html=1;align=center;fontColor=#FFFFFF;fillColor=#006600;" parent="1" vertex="1">
          <mxGeometry x="-1012" y="170" width="100" height="40" as="geometry" />
        </mxCell>
        <mxCell id="Y-LkQrVHgWmDQBg6I4oN-96" value="Description" style="ellipse;whiteSpace=wrap;html=1;align=center;fontColor=#FFFFFF;fillColor=#004C99;" parent="1" vertex="1">
          <mxGeometry x="-970" y="2050" width="100" height="40" as="geometry" />
        </mxCell>
        <mxCell id="BwEoltWDEDMI9O7-S3fw-30" style="edgeStyle=none;shape=connector;rounded=0;orthogonalLoop=1;jettySize=auto;html=1;exitX=1;exitY=0.5;exitDx=0;exitDy=0;labelBackgroundColor=default;strokeColor=default;align=center;verticalAlign=middle;fontFamily=Helvetica;fontSize=11;fontColor=#FFFFFF;endArrow=none;entryX=0.25;entryY=0;entryDx=0;entryDy=0;" parent="1" source="Y-LkQrVHgWmDQBg6I4oN-97" target="Y-LkQrVHgWmDQBg6I4oN-13" edge="1">
          <mxGeometry relative="1" as="geometry">
            <mxPoint x="-650" y="1930" as="targetPoint" />
          </mxGeometry>
        </mxCell>
        <mxCell id="Y-LkQrVHgWmDQBg6I4oN-97" value="Genre Name" style="ellipse;whiteSpace=wrap;html=1;align=center;fontColor=#FFFFFF;fillColor=#004C99;" parent="1" vertex="1">
          <mxGeometry x="-1200" y="2050" width="100" height="40" as="geometry" />
        </mxCell>
        <mxCell id="Y-LkQrVHgWmDQBg6I4oN-99" value="Address" style="ellipse;whiteSpace=wrap;html=1;align=center;fontColor=#FFFFFF;fillColor=#004C99;" parent="1" vertex="1">
          <mxGeometry x="-992" y="515" width="100" height="40" as="geometry" />
        </mxCell>
        <mxCell id="Y-LkQrVHgWmDQBg6I4oN-100" value="City" style="ellipse;whiteSpace=wrap;html=1;align=center;fontColor=#FFFFFF;fillColor=#004C99;" parent="1" vertex="1">
          <mxGeometry x="-1242" y="500" width="100" height="40" as="geometry" />
        </mxCell>
        <mxCell id="BwEoltWDEDMI9O7-S3fw-106" style="edgeStyle=none;shape=connector;rounded=0;orthogonalLoop=1;jettySize=auto;html=1;exitX=0;exitY=0;exitDx=0;exitDy=0;labelBackgroundColor=default;strokeColor=default;align=center;verticalAlign=middle;fontFamily=Helvetica;fontSize=11;fontColor=#FFFFFF;endArrow=none;entryX=0.75;entryY=1;entryDx=0;entryDy=0;" parent="1" source="Y-LkQrVHgWmDQBg6I4oN-101" target="Y-LkQrVHgWmDQBg6I4oN-14" edge="1">
          <mxGeometry relative="1" as="geometry">
            <mxPoint x="-1082" y="460" as="targetPoint" />
          </mxGeometry>
        </mxCell>
        <mxCell id="Y-LkQrVHgWmDQBg6I4oN-101" value="Country" style="ellipse;whiteSpace=wrap;html=1;align=center;fontColor=#FFFFFF;fillColor=#004C99;" parent="1" vertex="1">
          <mxGeometry x="-1022" y="565" width="100" height="40" as="geometry" />
        </mxCell>
        <mxCell id="Y-LkQrVHgWmDQBg6I4oN-102" value="Facilities" style="ellipse;whiteSpace=wrap;html=1;align=center;fontColor=#FFFFFF;fillColor=#004C99;" parent="1" vertex="1">
          <mxGeometry x="-1012" y="360" width="100" height="40" as="geometry" />
        </mxCell>
        <mxCell id="BwEoltWDEDMI9O7-S3fw-107" style="edgeStyle=none;shape=connector;rounded=0;orthogonalLoop=1;jettySize=auto;html=1;entryX=1;entryY=0.5;entryDx=0;entryDy=0;labelBackgroundColor=default;strokeColor=default;align=center;verticalAlign=middle;fontFamily=Helvetica;fontSize=11;fontColor=#FFFFFF;endArrow=none;exitX=0;exitY=0.5;exitDx=0;exitDy=0;" parent="1" source="Y-LkQrVHgWmDQBg6I4oN-103" target="Y-LkQrVHgWmDQBg6I4oN-14" edge="1">
          <mxGeometry relative="1" as="geometry">
            <mxPoint x="-962" y="445" as="sourcePoint" />
          </mxGeometry>
        </mxCell>
        <mxCell id="Y-LkQrVHgWmDQBg6I4oN-103" value="Capacity" style="ellipse;whiteSpace=wrap;html=1;align=center;fontColor=#FFFFFF;fillColor=#004C99;" parent="1" vertex="1">
          <mxGeometry x="-992" y="410" width="100" height="40" as="geometry" />
        </mxCell>
        <mxCell id="Y-LkQrVHgWmDQBg6I4oN-105" value="Address" style="ellipse;whiteSpace=wrap;html=1;align=center;fontColor=#FFFFFF;fillColor=#994C00;" parent="1" vertex="1">
          <mxGeometry x="-1585" y="2065" width="100" height="40" as="geometry" />
        </mxCell>
        <mxCell id="Y-LkQrVHgWmDQBg6I4oN-106" value="City" style="ellipse;whiteSpace=wrap;html=1;align=center;fontColor=#FFFFFF;fillColor=#994C00;" parent="1" vertex="1">
          <mxGeometry x="-1565" y="2115" width="100" height="40" as="geometry" />
        </mxCell>
        <mxCell id="Y-LkQrVHgWmDQBg6I4oN-107" value="Country" style="ellipse;whiteSpace=wrap;html=1;align=center;fontColor=#FFFFFF;fillColor=#994C00;" parent="1" vertex="1">
          <mxGeometry x="-1605" y="2010" width="100" height="40" as="geometry" />
        </mxCell>
        <mxCell id="Y-LkQrVHgWmDQBg6I4oN-108" value="Facilities" style="ellipse;whiteSpace=wrap;html=1;align=center;fontColor=#FFFFFF;fillColor=#994C00;" parent="1" vertex="1">
          <mxGeometry x="-1445" y="2115" width="100" height="40" as="geometry" />
        </mxCell>
        <mxCell id="Y-LkQrVHgWmDQBg6I4oN-115" value="Branch No." style="ellipse;whiteSpace=wrap;align=center;fontColor=#FFFFFF;fillColor=#004C99;fontStyle=4" parent="1" vertex="1">
          <mxGeometry x="-992" y="460" width="100" height="40" as="geometry" />
        </mxCell>
        <mxCell id="Y-LkQrVHgWmDQBg6I4oN-117" value="Department Name" style="ellipse;whiteSpace=wrap;html=1;align=center;fontColor=#FFFFFF;fillColor=#994C00;" parent="1" vertex="1">
          <mxGeometry x="-1662" y="387.5" width="100" height="40" as="geometry" />
        </mxCell>
        <mxCell id="Y-LkQrVHgWmDQBg6I4oN-118" value="Location" style="ellipse;whiteSpace=wrap;html=1;align=center;fontColor=#FFFFFF;fillColor=#994C00;" parent="1" vertex="1">
          <mxGeometry x="-1632" y="487.5" width="100" height="40" as="geometry" />
        </mxCell>
        <mxCell id="BwEoltWDEDMI9O7-S3fw-108" style="edgeStyle=none;shape=connector;rounded=0;orthogonalLoop=1;jettySize=auto;html=1;exitX=0.5;exitY=1;exitDx=0;exitDy=0;entryX=0.5;entryY=0;entryDx=0;entryDy=0;labelBackgroundColor=default;strokeColor=default;align=center;verticalAlign=middle;fontFamily=Helvetica;fontSize=11;fontColor=#FFFFFF;endArrow=none;" parent="1" source="Y-LkQrVHgWmDQBg6I4oN-119" target="Y-LkQrVHgWmDQBg6I4oN-17" edge="1">
          <mxGeometry relative="1" as="geometry" />
        </mxCell>
        <mxCell id="Y-LkQrVHgWmDQBg6I4oN-119" value="Description" style="ellipse;whiteSpace=wrap;html=1;align=center;fontColor=#FFFFFF;fillColor=#994C00;" parent="1" vertex="1">
          <mxGeometry x="-1512" y="337.5" width="100" height="40" as="geometry" />
        </mxCell>
        <mxCell id="Y-LkQrVHgWmDQBg6I4oN-122" value="Seat Number" style="ellipse;whiteSpace=wrap;html=1;align=center;fontColor=#000000;fillColor=#7d8c9b;strokeColor=#000033;" parent="1" vertex="1">
          <mxGeometry x="-1025" y="1307.25" width="60" height="40" as="geometry" />
        </mxCell>
        <mxCell id="Y-LkQrVHgWmDQBg6I4oN-123" value="Status" style="ellipse;whiteSpace=wrap;html=1;align=center;fontColor=#000000;fillColor=#7d8c9b;strokeColor=#000033;" parent="1" vertex="1">
          <mxGeometry x="-1030" y="1351.25" width="60" height="40" as="geometry" />
        </mxCell>
        <mxCell id="Y-LkQrVHgWmDQBg6I4oN-124" value="Price" style="ellipse;whiteSpace=wrap;html=1;align=center;fontColor=#000000;fillColor=#7d8c9b;strokeColor=#000033;" parent="1" vertex="1">
          <mxGeometry x="-990" y="1460" width="55" height="40" as="geometry" />
        </mxCell>
        <mxCell id="BwEoltWDEDMI9O7-S3fw-63" style="edgeStyle=none;shape=connector;rounded=0;orthogonalLoop=1;jettySize=auto;html=1;exitX=0.75;exitY=1;exitDx=0;exitDy=0;entryX=0.5;entryY=0;entryDx=0;entryDy=0;labelBackgroundColor=default;strokeColor=default;align=center;verticalAlign=middle;fontFamily=Helvetica;fontSize=11;fontColor=#FFFFFF;endArrow=none;" parent="1" source="Y-LkQrVHgWmDQBg6I4oN-6" target="Y-LkQrVHgWmDQBg6I4oN-56" edge="1">
          <mxGeometry relative="1" as="geometry" />
        </mxCell>
        <mxCell id="BwEoltWDEDMI9O7-S3fw-92" value="Payment Method" style="whiteSpace=wrap;html=1;align=center;fontColor=default;fillColor=#FFCCFF;" parent="1" vertex="1">
          <mxGeometry x="-1485" y="1582.5" width="100" height="40" as="geometry" />
        </mxCell>
        <mxCell id="BwEoltWDEDMI9O7-S3fw-97" style="edgeStyle=none;shape=connector;rounded=0;orthogonalLoop=1;jettySize=auto;html=1;exitX=0.5;exitY=0;exitDx=0;exitDy=0;entryX=0.5;entryY=1;entryDx=0;entryDy=0;labelBackgroundColor=default;strokeColor=default;align=center;verticalAlign=middle;fontFamily=Helvetica;fontSize=11;fontColor=#FFFFFF;endArrow=none;" parent="1" source="BwEoltWDEDMI9O7-S3fw-94" target="BwEoltWDEDMI9O7-S3fw-92" edge="1">
          <mxGeometry relative="1" as="geometry" />
        </mxCell>
        <mxCell id="BwEoltWDEDMI9O7-S3fw-94" value="ID" style="ellipse;whiteSpace=wrap;align=center;fontColor=#FFFFFF;fillColor=#330066;fontStyle=4" parent="1" vertex="1">
          <mxGeometry x="-1425" y="1657.5" width="100" height="40" as="geometry" />
        </mxCell>
        <mxCell id="BwEoltWDEDMI9O7-S3fw-96" style="edgeStyle=none;shape=connector;rounded=0;orthogonalLoop=1;jettySize=auto;html=1;exitX=0.5;exitY=0;exitDx=0;exitDy=0;entryX=0.25;entryY=1;entryDx=0;entryDy=0;labelBackgroundColor=default;strokeColor=default;align=center;verticalAlign=middle;fontFamily=Helvetica;fontSize=11;fontColor=#FFFFFF;endArrow=none;" parent="1" source="BwEoltWDEDMI9O7-S3fw-95" target="BwEoltWDEDMI9O7-S3fw-92" edge="1">
          <mxGeometry relative="1" as="geometry">
            <Array as="points" />
          </mxGeometry>
        </mxCell>
        <mxCell id="BwEoltWDEDMI9O7-S3fw-95" value="Payment Type" style="ellipse;whiteSpace=wrap;html=1;align=center;fontColor=#FFFFFF;fillColor=#330066;" parent="1" vertex="1">
          <mxGeometry x="-1545" y="1657.5" width="100" height="40" as="geometry" />
        </mxCell>
        <mxCell id="BwEoltWDEDMI9O7-S3fw-99" style="edgeStyle=none;shape=connector;rounded=0;orthogonalLoop=1;jettySize=auto;html=1;exitX=0.5;exitY=1;exitDx=0;exitDy=0;labelBackgroundColor=default;strokeColor=default;align=center;verticalAlign=middle;fontFamily=Helvetica;fontSize=11;fontColor=#FFFFFF;endArrow=none;" parent="1" source="Y-LkQrVHgWmDQBg6I4oN-14" target="Y-LkQrVHgWmDQBg6I4oN-14" edge="1">
          <mxGeometry relative="1" as="geometry" />
        </mxCell>
        <mxCell id="BwEoltWDEDMI9O7-S3fw-129" value="Provides" style="shape=rhombus;perimeter=rhombusPerimeter;whiteSpace=wrap;html=1;align=center;fontFamily=Helvetica;fontSize=11;fillColor=#fad9d5;strokeColor=#ae4132;" parent="1" vertex="1">
          <mxGeometry x="-1320" y="150" width="120" height="60" as="geometry" />
        </mxCell>
        <mxCell id="BwEoltWDEDMI9O7-S3fw-131" value="Controls" style="shape=rhombus;perimeter=rhombusPerimeter;whiteSpace=wrap;html=1;align=center;fontFamily=Helvetica;fontSize=11;fillColor=#fad9d5;strokeColor=#ae4132;" parent="1" vertex="1">
          <mxGeometry x="-1335" y="317.5" width="120" height="60" as="geometry" />
        </mxCell>
        <mxCell id="BwEoltWDEDMI9O7-S3fw-133" value="Manage" style="shape=rhombus;perimeter=rhombusPerimeter;whiteSpace=wrap;html=1;align=center;fontFamily=Helvetica;fontSize=11;fillColor=#fad9d5;strokeColor=#ae4132;" parent="1" vertex="1">
          <mxGeometry x="-1522" y="575" width="120" height="60" as="geometry" />
        </mxCell>
        <mxCell id="BwEoltWDEDMI9O7-S3fw-135" value="Permit" style="shape=rhombus;perimeter=rhombusPerimeter;whiteSpace=wrap;html=1;align=center;fontFamily=Helvetica;fontSize=11;fillColor=#fad9d5;strokeColor=#ae4132;" parent="1" vertex="1">
          <mxGeometry x="-1142" y="300" width="120" height="60" as="geometry" />
        </mxCell>
        <mxCell id="BwEoltWDEDMI9O7-S3fw-139" value="Options" style="shape=rhombus;perimeter=rhombusPerimeter;whiteSpace=wrap;html=1;align=center;fontFamily=Helvetica;fontSize=11;fillColor=#fad9d5;strokeColor=#ae4132;" parent="1" vertex="1">
          <mxGeometry x="-1100" y="1970" width="120" height="60" as="geometry" />
        </mxCell>
        <mxCell id="BwEoltWDEDMI9O7-S3fw-141" value="Purchase" style="shape=rhombus;perimeter=rhombusPerimeter;whiteSpace=wrap;html=1;align=center;fontFamily=Helvetica;fontSize=11;fillColor=#fad9d5;strokeColor=#ae4132;" parent="1" vertex="1">
          <mxGeometry x="-1350" y="1730" width="120" height="60" as="geometry" />
        </mxCell>
        <mxCell id="BwEoltWDEDMI9O7-S3fw-143" value="Features" style="shape=rhombus;perimeter=rhombusPerimeter;whiteSpace=wrap;html=1;align=center;fontFamily=Helvetica;fontSize=11;fillColor=#fad9d5;strokeColor=#ae4132;" parent="1" vertex="1">
          <mxGeometry x="-995" y="1522.5" width="120" height="60" as="geometry" />
        </mxCell>
        <mxCell id="BwEoltWDEDMI9O7-S3fw-145" value="Charges" style="shape=rhombus;perimeter=rhombusPerimeter;whiteSpace=wrap;html=1;align=center;fontFamily=Helvetica;fontSize=11;fillColor=#fad9d5;strokeColor=#ae4132;" parent="1" vertex="1">
          <mxGeometry x="-1402" y="1470" width="120" height="60" as="geometry" />
        </mxCell>
        <mxCell id="BwEoltWDEDMI9O7-S3fw-147" value="Make" style="shape=rhombus;perimeter=rhombusPerimeter;whiteSpace=wrap;html=1;align=center;fontFamily=Helvetica;fontSize=11;fillColor=#fad9d5;strokeColor=#ae4132;" parent="1" vertex="1">
          <mxGeometry x="-1395" y="1370" width="120" height="60" as="geometry" />
        </mxCell>
        <mxCell id="BwEoltWDEDMI9O7-S3fw-149" value="Reservation" style="shape=rhombus;perimeter=rhombusPerimeter;whiteSpace=wrap;html=1;align=center;fontFamily=Helvetica;fontSize=11;fillColor=#fad9d5;strokeColor=#ae4132;" parent="1" vertex="1">
          <mxGeometry x="-995" y="1240" width="120" height="60" as="geometry" />
        </mxCell>
        <mxCell id="BwEoltWDEDMI9O7-S3fw-151" value="Join" style="shape=rhombus;perimeter=rhombusPerimeter;whiteSpace=wrap;html=1;align=center;fontFamily=Helvetica;fontSize=11;fillColor=#fad9d5;strokeColor=#ae4132;" parent="1" vertex="1">
          <mxGeometry x="-1650" y="1470" width="120" height="60" as="geometry" />
        </mxCell>
        <mxCell id="BwEoltWDEDMI9O7-S3fw-157" value="Give" style="shape=rhombus;perimeter=rhombusPerimeter;whiteSpace=wrap;html=1;align=center;fontFamily=Helvetica;fontSize=11;fillColor=#fad9d5;strokeColor=#ae4132;" parent="1" vertex="1">
          <mxGeometry x="-1180" y="1410" width="120" height="60" as="geometry" />
        </mxCell>
        <mxCell id="lyStIA8swfeB7uI-REHG-11" value="Arrange" style="shape=rhombus;perimeter=rhombusPerimeter;whiteSpace=wrap;html=1;align=center;fontFamily=Helvetica;fontSize=11;fillColor=#fad9d5;strokeColor=#ae4132;" parent="1" vertex="1">
          <mxGeometry x="-1195" y="935" width="120" height="60" as="geometry" />
        </mxCell>
        <mxCell id="lyStIA8swfeB7uI-REHG-13" value="Supplier Type" style="ellipse;whiteSpace=wrap;html=1;align=center;fillColor=#330066;fontColor=#FFFFFF;" parent="1" vertex="1">
          <mxGeometry x="-1532" y="240" width="100" height="40" as="geometry" />
        </mxCell>
        <mxCell id="lyStIA8swfeB7uI-REHG-14" value="" style="endArrow=none;html=1;rounded=0;fontSize=12;startSize=8;endSize=8;exitX=0.5;exitY=0;exitDx=0;exitDy=0;entryX=0.5;entryY=1;entryDx=0;entryDy=0;" parent="1" source="lyStIA8swfeB7uI-REHG-13" target="Y-LkQrVHgWmDQBg6I4oN-1" edge="1">
          <mxGeometry width="50" height="50" relative="1" as="geometry">
            <mxPoint x="-1400" y="390" as="sourcePoint" />
            <mxPoint x="-1350" y="340" as="targetPoint" />
          </mxGeometry>
        </mxCell>
        <mxCell id="biQodX1SEKOZoz9GVlzy-3" value="" style="endArrow=none;html=1;rounded=0;fontSize=12;startSize=8;endSize=8;exitX=1;exitY=0.5;exitDx=0;exitDy=0;entryX=0;entryY=0.5;entryDx=0;entryDy=0;" parent="1" source="Y-LkQrVHgWmDQBg6I4oN-1" target="BwEoltWDEDMI9O7-S3fw-129" edge="1">
          <mxGeometry relative="1" as="geometry">
            <mxPoint x="-1370" y="410" as="sourcePoint" />
            <mxPoint x="-1210" y="410" as="targetPoint" />
          </mxGeometry>
        </mxCell>
        <mxCell id="biQodX1SEKOZoz9GVlzy-4" value="1" style="resizable=0;html=1;whiteSpace=wrap;align=right;verticalAlign=bottom;" parent="biQodX1SEKOZoz9GVlzy-3" connectable="0" vertex="1">
          <mxGeometry x="1" relative="1" as="geometry" />
        </mxCell>
        <mxCell id="biQodX1SEKOZoz9GVlzy-5" value="" style="shape=link;html=1;rounded=0;fontSize=12;startSize=8;endSize=8;exitX=0;exitY=0.5;exitDx=0;exitDy=0;entryX=1;entryY=0.5;entryDx=0;entryDy=0;" parent="1" source="Y-LkQrVHgWmDQBg6I4oN-12" target="BwEoltWDEDMI9O7-S3fw-129" edge="1">
          <mxGeometry relative="1" as="geometry">
            <mxPoint x="-1370" y="410" as="sourcePoint" />
            <mxPoint x="-1210" y="410" as="targetPoint" />
          </mxGeometry>
        </mxCell>
        <mxCell id="biQodX1SEKOZoz9GVlzy-6" value="N" style="resizable=0;html=1;whiteSpace=wrap;align=right;verticalAlign=bottom;" parent="biQodX1SEKOZoz9GVlzy-5" connectable="0" vertex="1">
          <mxGeometry x="1" relative="1" as="geometry" />
        </mxCell>
        <mxCell id="biQodX1SEKOZoz9GVlzy-7" value="" style="endArrow=none;html=1;rounded=0;fontSize=12;startSize=8;endSize=8;exitX=0.5;exitY=0;exitDx=0;exitDy=0;entryX=0.5;entryY=1;entryDx=0;entryDy=0;" parent="1" source="BwEoltWDEDMI9O7-S3fw-135" target="Y-LkQrVHgWmDQBg6I4oN-12" edge="1">
          <mxGeometry relative="1" as="geometry">
            <mxPoint x="-1370" y="410" as="sourcePoint" />
            <mxPoint x="-1130" y="260" as="targetPoint" />
          </mxGeometry>
        </mxCell>
        <mxCell id="biQodX1SEKOZoz9GVlzy-9" value="N" style="resizable=0;html=1;whiteSpace=wrap;align=right;verticalAlign=bottom;" parent="biQodX1SEKOZoz9GVlzy-7" connectable="0" vertex="1">
          <mxGeometry x="1" relative="1" as="geometry">
            <mxPoint y="20" as="offset" />
          </mxGeometry>
        </mxCell>
        <mxCell id="biQodX1SEKOZoz9GVlzy-10" value="" style="shape=link;html=1;rounded=0;fontSize=12;startSize=8;endSize=8;entryX=0.5;entryY=0;entryDx=0;entryDy=0;exitX=0.5;exitY=1;exitDx=0;exitDy=0;" parent="1" source="BwEoltWDEDMI9O7-S3fw-135" target="Y-LkQrVHgWmDQBg6I4oN-14" edge="1">
          <mxGeometry relative="1" as="geometry">
            <mxPoint x="-1320" y="580" as="sourcePoint" />
            <mxPoint x="-1160" y="580" as="targetPoint" />
          </mxGeometry>
        </mxCell>
        <mxCell id="biQodX1SEKOZoz9GVlzy-12" value="M" style="resizable=0;html=1;whiteSpace=wrap;align=right;verticalAlign=bottom;" parent="biQodX1SEKOZoz9GVlzy-10" connectable="0" vertex="1">
          <mxGeometry x="1" relative="1" as="geometry">
            <mxPoint x="-8" y="-45" as="offset" />
          </mxGeometry>
        </mxCell>
        <mxCell id="biQodX1SEKOZoz9GVlzy-15" value="" style="shape=link;html=1;rounded=0;fontSize=12;startSize=8;endSize=8;exitX=1;exitY=0.5;exitDx=0;exitDy=0;entryX=0;entryY=0.5;entryDx=0;entryDy=0;" parent="1" source="Y-LkQrVHgWmDQBg6I4oN-17" target="BwEoltWDEDMI9O7-S3fw-131" edge="1">
          <mxGeometry relative="1" as="geometry">
            <mxPoint x="-1400" y="470" as="sourcePoint" />
            <mxPoint x="-1335" y="348" as="targetPoint" />
          </mxGeometry>
        </mxCell>
        <mxCell id="biQodX1SEKOZoz9GVlzy-16" value="M" style="resizable=0;html=1;whiteSpace=wrap;align=right;verticalAlign=bottom;" parent="biQodX1SEKOZoz9GVlzy-15" connectable="0" vertex="1">
          <mxGeometry x="1" relative="1" as="geometry" />
        </mxCell>
        <mxCell id="biQodX1SEKOZoz9GVlzy-17" value="" style="shape=link;html=1;rounded=0;fontSize=12;startSize=8;endSize=8;exitX=0;exitY=0.25;exitDx=0;exitDy=0;entryX=1;entryY=0.5;entryDx=0;entryDy=0;" parent="1" source="Y-LkQrVHgWmDQBg6I4oN-14" target="BwEoltWDEDMI9O7-S3fw-131" edge="1">
          <mxGeometry relative="1" as="geometry">
            <mxPoint x="-1400" y="470" as="sourcePoint" />
            <mxPoint x="-1240" y="470" as="targetPoint" />
          </mxGeometry>
        </mxCell>
        <mxCell id="biQodX1SEKOZoz9GVlzy-18" value="N" style="resizable=0;html=1;whiteSpace=wrap;align=right;verticalAlign=bottom;" parent="biQodX1SEKOZoz9GVlzy-17" connectable="0" vertex="1">
          <mxGeometry x="1" relative="1" as="geometry" />
        </mxCell>
        <mxCell id="biQodX1SEKOZoz9GVlzy-19" value="" style="shape=link;html=1;rounded=0;fontSize=12;startSize=8;endSize=8;exitX=0.5;exitY=1;exitDx=0;exitDy=0;entryX=0.5;entryY=0;entryDx=0;entryDy=0;" parent="1" source="Y-LkQrVHgWmDQBg6I4oN-17" target="BwEoltWDEDMI9O7-S3fw-133" edge="1">
          <mxGeometry relative="1" as="geometry">
            <mxPoint x="-1400" y="580" as="sourcePoint" />
            <mxPoint x="-1240" y="580" as="targetPoint" />
          </mxGeometry>
        </mxCell>
        <mxCell id="biQodX1SEKOZoz9GVlzy-20" value="N" style="resizable=0;html=1;whiteSpace=wrap;align=right;verticalAlign=bottom;" parent="biQodX1SEKOZoz9GVlzy-19" connectable="0" vertex="1">
          <mxGeometry x="1" relative="1" as="geometry">
            <mxPoint x="-8" as="offset" />
          </mxGeometry>
        </mxCell>
        <mxCell id="biQodX1SEKOZoz9GVlzy-21" value="" style="shape=link;html=1;rounded=0;fontSize=12;startSize=8;endSize=8;exitX=0.5;exitY=0;exitDx=0;exitDy=0;entryX=0.5;entryY=1;entryDx=0;entryDy=0;" parent="1" source="Y-LkQrVHgWmDQBg6I4oN-10" target="BwEoltWDEDMI9O7-S3fw-133" edge="1">
          <mxGeometry relative="1" as="geometry">
            <mxPoint x="-1400" y="750" as="sourcePoint" />
            <mxPoint x="-1240" y="750" as="targetPoint" />
          </mxGeometry>
        </mxCell>
        <mxCell id="biQodX1SEKOZoz9GVlzy-22" value="1" style="resizable=0;html=1;whiteSpace=wrap;align=right;verticalAlign=bottom;" parent="biQodX1SEKOZoz9GVlzy-21" connectable="0" vertex="1">
          <mxGeometry x="1" relative="1" as="geometry">
            <mxPoint x="-3" y="25" as="offset" />
          </mxGeometry>
        </mxCell>
        <mxCell id="biQodX1SEKOZoz9GVlzy-23" value="" style="endArrow=none;html=1;rounded=0;fontSize=12;startSize=8;endSize=8;exitX=1;exitY=1;exitDx=0;exitDy=0;entryX=0;entryY=0.5;entryDx=0;entryDy=0;" parent="1" source="Y-LkQrVHgWmDQBg6I4oN-10" target="lyStIA8swfeB7uI-REHG-11" edge="1">
          <mxGeometry relative="1" as="geometry">
            <mxPoint x="-1450" y="880" as="sourcePoint" />
            <mxPoint x="-1290" y="880" as="targetPoint" />
          </mxGeometry>
        </mxCell>
        <mxCell id="biQodX1SEKOZoz9GVlzy-24" value="N" style="resizable=0;html=1;whiteSpace=wrap;align=right;verticalAlign=bottom;" parent="biQodX1SEKOZoz9GVlzy-23" connectable="0" vertex="1">
          <mxGeometry x="1" relative="1" as="geometry">
            <mxPoint y="-5" as="offset" />
          </mxGeometry>
        </mxCell>
        <mxCell id="biQodX1SEKOZoz9GVlzy-25" value="" style="shape=link;html=1;rounded=0;fontSize=12;startSize=8;endSize=8;entryX=0.5;entryY=0;entryDx=0;entryDy=0;exitX=0.5;exitY=1;exitDx=0;exitDy=0;" parent="1" source="lyStIA8swfeB7uI-REHG-11" target="Y-LkQrVHgWmDQBg6I4oN-9" edge="1">
          <mxGeometry relative="1" as="geometry">
            <mxPoint x="-1450" y="1100" as="sourcePoint" />
            <mxPoint x="-1290" y="1100" as="targetPoint" />
          </mxGeometry>
        </mxCell>
        <mxCell id="biQodX1SEKOZoz9GVlzy-26" value="M" style="resizable=0;html=1;whiteSpace=wrap;align=left;verticalAlign=bottom;" parent="biQodX1SEKOZoz9GVlzy-25" connectable="0" vertex="1">
          <mxGeometry x="-1" relative="1" as="geometry">
            <mxPoint x="7" y="15" as="offset" />
          </mxGeometry>
        </mxCell>
        <mxCell id="biQodX1SEKOZoz9GVlzy-27" value="N" style="resizable=0;html=1;whiteSpace=wrap;align=right;verticalAlign=bottom;" parent="biQodX1SEKOZoz9GVlzy-25" connectable="0" vertex="1">
          <mxGeometry x="1" relative="1" as="geometry">
            <mxPoint x="-15" y="-8" as="offset" />
          </mxGeometry>
        </mxCell>
        <mxCell id="biQodX1SEKOZoz9GVlzy-35" value="Supervision" style="shape=rhombus;perimeter=rhombusPerimeter;whiteSpace=wrap;html=1;align=center;fontFamily=Helvetica;fontSize=11;fillColor=#fad9d5;strokeColor=#ae4132;" parent="1" vertex="1">
          <mxGeometry x="-1650" y="590" width="120" height="60" as="geometry" />
        </mxCell>
        <mxCell id="biQodX1SEKOZoz9GVlzy-36" value="" style="endArrow=none;html=1;rounded=0;fontSize=12;startSize=8;endSize=8;exitX=0.25;exitY=0;exitDx=0;exitDy=0;entryX=0.5;entryY=1;entryDx=0;entryDy=0;" parent="1" source="Y-LkQrVHgWmDQBg6I4oN-10" target="biQodX1SEKOZoz9GVlzy-35" edge="1">
          <mxGeometry relative="1" as="geometry">
            <mxPoint x="-1300" y="800" as="sourcePoint" />
            <mxPoint x="-1140" y="800" as="targetPoint" />
          </mxGeometry>
        </mxCell>
        <mxCell id="biQodX1SEKOZoz9GVlzy-37" value="1" style="resizable=0;html=1;whiteSpace=wrap;align=right;verticalAlign=bottom;" parent="biQodX1SEKOZoz9GVlzy-36" connectable="0" vertex="1">
          <mxGeometry x="1" relative="1" as="geometry">
            <mxPoint y="20" as="offset" />
          </mxGeometry>
        </mxCell>
        <mxCell id="biQodX1SEKOZoz9GVlzy-38" value="" style="endArrow=none;html=1;rounded=0;fontSize=12;startSize=8;endSize=8;exitX=0.25;exitY=0;exitDx=0;exitDy=0;entryX=1;entryY=0.5;entryDx=0;entryDy=0;" parent="1" source="Y-LkQrVHgWmDQBg6I4oN-10" target="biQodX1SEKOZoz9GVlzy-35" edge="1">
          <mxGeometry relative="1" as="geometry">
            <mxPoint x="-1300" y="800" as="sourcePoint" />
            <mxPoint x="-1140" y="800" as="targetPoint" />
          </mxGeometry>
        </mxCell>
        <mxCell id="biQodX1SEKOZoz9GVlzy-39" value="N" style="resizable=0;html=1;whiteSpace=wrap;align=right;verticalAlign=bottom;" parent="biQodX1SEKOZoz9GVlzy-38" connectable="0" vertex="1">
          <mxGeometry x="1" relative="1" as="geometry">
            <mxPoint x="-2" y="30" as="offset" />
          </mxGeometry>
        </mxCell>
        <mxCell id="biQodX1SEKOZoz9GVlzy-40" value="" style="endArrow=none;html=1;rounded=0;fontSize=12;startSize=8;endSize=8;exitX=0.5;exitY=0;exitDx=0;exitDy=0;entryX=0.5;entryY=1;entryDx=0;entryDy=0;" parent="1" source="Y-LkQrVHgWmDQBg6I4oN-18" target="BwEoltWDEDMI9O7-S3fw-149" edge="1">
          <mxGeometry relative="1" as="geometry">
            <mxPoint x="-1350" y="1380" as="sourcePoint" />
            <mxPoint x="-910" y="1340" as="targetPoint" />
          </mxGeometry>
        </mxCell>
        <mxCell id="biQodX1SEKOZoz9GVlzy-41" value="N" style="resizable=0;html=1;whiteSpace=wrap;align=right;verticalAlign=bottom;" parent="biQodX1SEKOZoz9GVlzy-40" connectable="0" vertex="1">
          <mxGeometry x="1" relative="1" as="geometry">
            <mxPoint x="13" y="23" as="offset" />
          </mxGeometry>
        </mxCell>
        <mxCell id="biQodX1SEKOZoz9GVlzy-43" value="" style="shape=link;html=1;rounded=0;fontSize=12;startSize=8;endSize=8;exitX=1;exitY=0.5;exitDx=0;exitDy=0;entryX=0;entryY=0.5;entryDx=0;entryDy=0;" parent="1" source="Y-LkQrVHgWmDQBg6I4oN-9" target="BwEoltWDEDMI9O7-S3fw-149" edge="1">
          <mxGeometry relative="1" as="geometry">
            <mxPoint x="-1170" y="1330" as="sourcePoint" />
            <mxPoint x="-1010" y="1330" as="targetPoint" />
          </mxGeometry>
        </mxCell>
        <mxCell id="biQodX1SEKOZoz9GVlzy-45" value="1" style="resizable=0;html=1;whiteSpace=wrap;align=right;verticalAlign=bottom;" parent="biQodX1SEKOZoz9GVlzy-43" connectable="0" vertex="1">
          <mxGeometry x="1" relative="1" as="geometry">
            <mxPoint x="-5" y="-10" as="offset" />
          </mxGeometry>
        </mxCell>
        <mxCell id="biQodX1SEKOZoz9GVlzy-46" value="" style="endArrow=none;html=1;rounded=0;fontSize=12;startSize=8;endSize=8;exitX=0.5;exitY=0;exitDx=0;exitDy=0;entryX=0.5;entryY=1;entryDx=0;entryDy=0;" parent="1" source="Y-LkQrVHgWmDQBg6I4oN-7" target="BwEoltWDEDMI9O7-S3fw-157" edge="1">
          <mxGeometry relative="1" as="geometry">
            <mxPoint x="-1075" y="1522.5" as="sourcePoint" />
            <mxPoint x="-1075" y="1425.5" as="targetPoint" />
          </mxGeometry>
        </mxCell>
        <mxCell id="biQodX1SEKOZoz9GVlzy-47" value="1" style="resizable=0;html=1;whiteSpace=wrap;align=right;verticalAlign=bottom;" parent="biQodX1SEKOZoz9GVlzy-46" connectable="0" vertex="1">
          <mxGeometry x="1" relative="1" as="geometry">
            <mxPoint x="-2" y="23" as="offset" />
          </mxGeometry>
        </mxCell>
        <mxCell id="biQodX1SEKOZoz9GVlzy-48" value="" style="endArrow=none;html=1;rounded=0;fontSize=12;startSize=8;endSize=8;entryX=0.5;entryY=0;entryDx=0;entryDy=0;" parent="1" target="BwEoltWDEDMI9O7-S3fw-157" edge="1">
          <mxGeometry relative="1" as="geometry">
            <mxPoint x="-1110" y="1250" as="sourcePoint" />
            <mxPoint x="-1230" y="1440" as="targetPoint" />
          </mxGeometry>
        </mxCell>
        <mxCell id="biQodX1SEKOZoz9GVlzy-50" value="N" style="resizable=0;html=1;whiteSpace=wrap;align=right;verticalAlign=bottom;" parent="biQodX1SEKOZoz9GVlzy-48" connectable="0" vertex="1">
          <mxGeometry x="1" relative="1" as="geometry" />
        </mxCell>
        <mxCell id="biQodX1SEKOZoz9GVlzy-51" value="" style="endArrow=none;html=1;rounded=0;fontSize=12;startSize=8;endSize=8;entryX=0.5;entryY=0;entryDx=0;entryDy=0;exitX=0.5;exitY=1;exitDx=0;exitDy=0;" parent="1" source="Y-LkQrVHgWmDQBg6I4oN-9" target="BwEoltWDEDMI9O7-S3fw-141" edge="1">
          <mxGeometry relative="1" as="geometry">
            <mxPoint x="-1100" y="1260" as="sourcePoint" />
            <mxPoint x="-1110" y="1420" as="targetPoint" />
          </mxGeometry>
        </mxCell>
        <mxCell id="biQodX1SEKOZoz9GVlzy-52" value="M" style="resizable=0;html=1;whiteSpace=wrap;align=left;verticalAlign=bottom;" parent="biQodX1SEKOZoz9GVlzy-51" connectable="0" vertex="1">
          <mxGeometry x="-1" relative="1" as="geometry">
            <mxPoint y="20" as="offset" />
          </mxGeometry>
        </mxCell>
        <mxCell id="biQodX1SEKOZoz9GVlzy-53" value="N" style="resizable=0;html=1;whiteSpace=wrap;align=right;verticalAlign=bottom;" parent="biQodX1SEKOZoz9GVlzy-51" connectable="0" vertex="1">
          <mxGeometry x="1" relative="1" as="geometry" />
        </mxCell>
        <mxCell id="biQodX1SEKOZoz9GVlzy-54" value="" style="shape=link;html=1;rounded=0;fontSize=12;startSize=8;endSize=8;exitX=0.25;exitY=1;exitDx=0;exitDy=0;entryX=1;entryY=0.5;entryDx=0;entryDy=0;" parent="1" source="Y-LkQrVHgWmDQBg6I4oN-9" target="BwEoltWDEDMI9O7-S3fw-145" edge="1">
          <mxGeometry relative="1" as="geometry">
            <mxPoint x="-1250" y="1590" as="sourcePoint" />
            <mxPoint x="-1090" y="1590" as="targetPoint" />
          </mxGeometry>
        </mxCell>
        <mxCell id="biQodX1SEKOZoz9GVlzy-55" value="1" style="resizable=0;html=1;whiteSpace=wrap;align=right;verticalAlign=bottom;" parent="biQodX1SEKOZoz9GVlzy-54" connectable="0" vertex="1">
          <mxGeometry x="1" relative="1" as="geometry">
            <mxPoint y="-10" as="offset" />
          </mxGeometry>
        </mxCell>
        <mxCell id="biQodX1SEKOZoz9GVlzy-56" value="" style="endArrow=none;html=1;rounded=0;fontSize=12;startSize=8;endSize=8;exitX=0.5;exitY=0;exitDx=0;exitDy=0;entryX=0;entryY=0.5;entryDx=0;entryDy=0;" parent="1" source="BwEoltWDEDMI9O7-S3fw-92" target="BwEoltWDEDMI9O7-S3fw-145" edge="1">
          <mxGeometry relative="1" as="geometry">
            <mxPoint x="-1340" y="1560" as="sourcePoint" />
            <mxPoint x="-1440" y="1540" as="targetPoint" />
          </mxGeometry>
        </mxCell>
        <mxCell id="biQodX1SEKOZoz9GVlzy-57" value="N" style="resizable=0;html=1;whiteSpace=wrap;align=right;verticalAlign=bottom;" parent="biQodX1SEKOZoz9GVlzy-56" connectable="0" vertex="1">
          <mxGeometry x="1" relative="1" as="geometry" />
        </mxCell>
        <mxCell id="biQodX1SEKOZoz9GVlzy-58" value="" style="endArrow=none;html=1;rounded=0;fontSize=12;startSize=8;endSize=8;exitX=1;exitY=0.5;exitDx=0;exitDy=0;entryX=0;entryY=0.5;entryDx=0;entryDy=0;" parent="1" source="Y-LkQrVHgWmDQBg6I4oN-8" target="BwEoltWDEDMI9O7-S3fw-147" edge="1">
          <mxGeometry relative="1" as="geometry">
            <mxPoint x="-1290" y="1520" as="sourcePoint" />
            <mxPoint x="-1130" y="1520" as="targetPoint" />
          </mxGeometry>
        </mxCell>
        <mxCell id="biQodX1SEKOZoz9GVlzy-59" value="1" style="resizable=0;html=1;whiteSpace=wrap;align=right;verticalAlign=bottom;" parent="biQodX1SEKOZoz9GVlzy-58" connectable="0" vertex="1">
          <mxGeometry x="1" relative="1" as="geometry">
            <mxPoint x="10" y="-9" as="offset" />
          </mxGeometry>
        </mxCell>
        <mxCell id="biQodX1SEKOZoz9GVlzy-60" value="" style="shape=link;html=1;rounded=0;fontSize=12;startSize=8;endSize=8;exitX=0;exitY=1;exitDx=0;exitDy=0;entryX=1;entryY=0.5;entryDx=0;entryDy=0;" parent="1" source="Y-LkQrVHgWmDQBg6I4oN-9" target="BwEoltWDEDMI9O7-S3fw-147" edge="1">
          <mxGeometry relative="1" as="geometry">
            <mxPoint x="-1350" y="1440" as="sourcePoint" />
            <mxPoint x="-1190" y="1440" as="targetPoint" />
          </mxGeometry>
        </mxCell>
        <mxCell id="biQodX1SEKOZoz9GVlzy-61" value="M" style="resizable=0;html=1;whiteSpace=wrap;align=right;verticalAlign=bottom;" parent="biQodX1SEKOZoz9GVlzy-60" connectable="0" vertex="1">
          <mxGeometry x="1" relative="1" as="geometry">
            <mxPoint y="-9" as="offset" />
          </mxGeometry>
        </mxCell>
        <mxCell id="biQodX1SEKOZoz9GVlzy-62" value="" style="endArrow=none;html=1;rounded=0;fontSize=12;startSize=8;endSize=8;exitX=0;exitY=1;exitDx=0;exitDy=0;entryX=0.5;entryY=0;entryDx=0;entryDy=0;" parent="1" source="Y-LkQrVHgWmDQBg6I4oN-8" target="BwEoltWDEDMI9O7-S3fw-151" edge="1">
          <mxGeometry relative="1" as="geometry">
            <mxPoint x="-1300" y="1500" as="sourcePoint" />
            <mxPoint x="-1140" y="1500" as="targetPoint" />
          </mxGeometry>
        </mxCell>
        <mxCell id="biQodX1SEKOZoz9GVlzy-63" value="1" style="resizable=0;html=1;whiteSpace=wrap;align=right;verticalAlign=bottom;" parent="biQodX1SEKOZoz9GVlzy-62" connectable="0" vertex="1">
          <mxGeometry x="1" relative="1" as="geometry" />
        </mxCell>
        <mxCell id="biQodX1SEKOZoz9GVlzy-66" value="" style="endArrow=none;html=1;rounded=0;fontSize=12;startSize=8;endSize=8;entryX=0.5;entryY=1;entryDx=0;entryDy=0;exitX=0.75;exitY=0;exitDx=0;exitDy=0;" parent="1" source="Y-LkQrVHgWmDQBg6I4oN-15" target="BwEoltWDEDMI9O7-S3fw-141" edge="1">
          <mxGeometry relative="1" as="geometry">
            <mxPoint x="-1390" y="1990" as="sourcePoint" />
            <mxPoint x="-1160" y="1830" as="targetPoint" />
          </mxGeometry>
        </mxCell>
        <mxCell id="biQodX1SEKOZoz9GVlzy-68" value="N" style="resizable=0;html=1;whiteSpace=wrap;align=right;verticalAlign=bottom;" parent="biQodX1SEKOZoz9GVlzy-66" connectable="0" vertex="1">
          <mxGeometry x="1" relative="1" as="geometry">
            <mxPoint x="10" y="20" as="offset" />
          </mxGeometry>
        </mxCell>
        <mxCell id="biQodX1SEKOZoz9GVlzy-78" value="" style="endArrow=none;html=1;rounded=0;fontSize=12;startSize=8;endSize=8;exitX=0.5;exitY=0;exitDx=0;exitDy=0;" parent="1" source="Y-LkQrVHgWmDQBg6I4oN-13" edge="1">
          <mxGeometry relative="1" as="geometry">
            <mxPoint x="-1170" y="1910" as="sourcePoint" />
            <mxPoint x="-1040" y="2030" as="targetPoint" />
          </mxGeometry>
        </mxCell>
        <mxCell id="biQodX1SEKOZoz9GVlzy-79" value="N" style="resizable=0;html=1;whiteSpace=wrap;align=right;verticalAlign=bottom;" parent="biQodX1SEKOZoz9GVlzy-78" connectable="0" vertex="1">
          <mxGeometry x="1" relative="1" as="geometry" />
        </mxCell>
        <mxCell id="biQodX1SEKOZoz9GVlzy-82" value="" style="shape=link;html=1;rounded=0;fontSize=12;startSize=8;endSize=8;exitX=1;exitY=1;exitDx=0;exitDy=0;entryX=0;entryY=0.5;entryDx=0;entryDy=0;" parent="1" source="Y-LkQrVHgWmDQBg6I4oN-9" target="BwEoltWDEDMI9O7-S3fw-143" edge="1">
          <mxGeometry relative="1" as="geometry">
            <mxPoint x="-1350" y="1480" as="sourcePoint" />
            <mxPoint x="-1190" y="1480" as="targetPoint" />
          </mxGeometry>
        </mxCell>
        <mxCell id="biQodX1SEKOZoz9GVlzy-83" value="N" style="resizable=0;html=1;whiteSpace=wrap;align=right;verticalAlign=bottom;" parent="biQodX1SEKOZoz9GVlzy-82" connectable="0" vertex="1">
          <mxGeometry x="1" relative="1" as="geometry" />
        </mxCell>
        <mxCell id="biQodX1SEKOZoz9GVlzy-84" value="" style="endArrow=none;html=1;rounded=0;fontSize=12;startSize=8;endSize=8;exitX=1;exitY=0;exitDx=0;exitDy=0;entryX=0.5;entryY=1;entryDx=0;entryDy=0;" parent="1" source="Y-LkQrVHgWmDQBg6I4oN-11" target="BwEoltWDEDMI9O7-S3fw-143" edge="1">
          <mxGeometry relative="1" as="geometry">
            <mxPoint x="-1350" y="1650" as="sourcePoint" />
            <mxPoint x="-1190" y="1650" as="targetPoint" />
          </mxGeometry>
        </mxCell>
        <mxCell id="biQodX1SEKOZoz9GVlzy-85" value="1" style="resizable=0;html=1;whiteSpace=wrap;align=right;verticalAlign=bottom;" parent="biQodX1SEKOZoz9GVlzy-84" connectable="0" vertex="1">
          <mxGeometry x="1" relative="1" as="geometry" />
        </mxCell>
        <mxCell id="biQodX1SEKOZoz9GVlzy-86" value="" style="shape=link;html=1;rounded=0;fontSize=12;startSize=8;endSize=8;exitX=0.5;exitY=1;exitDx=0;exitDy=0;entryX=0.5;entryY=0;entryDx=0;entryDy=0;" parent="1" source="Y-LkQrVHgWmDQBg6I4oN-11" target="BwEoltWDEDMI9O7-S3fw-139" edge="1">
          <mxGeometry relative="1" as="geometry">
            <mxPoint x="-1350" y="1900" as="sourcePoint" />
            <mxPoint x="-1190" y="1900" as="targetPoint" />
          </mxGeometry>
        </mxCell>
        <mxCell id="biQodX1SEKOZoz9GVlzy-87" value="N" style="resizable=0;html=1;whiteSpace=wrap;align=right;verticalAlign=bottom;" parent="biQodX1SEKOZoz9GVlzy-86" connectable="0" vertex="1">
          <mxGeometry x="1" relative="1" as="geometry" />
        </mxCell>
        <mxCell id="biQodX1SEKOZoz9GVlzy-88" value="" style="shape=link;html=1;rounded=0;fontSize=12;startSize=8;endSize=8;exitX=0.5;exitY=0;exitDx=0;exitDy=0;entryX=0.5;entryY=1;entryDx=0;entryDy=0;" parent="1" source="Y-LkQrVHgWmDQBg6I4oN-6" target="BwEoltWDEDMI9O7-S3fw-151" edge="1">
          <mxGeometry relative="1" as="geometry">
            <mxPoint x="-1350" y="1570" as="sourcePoint" />
            <mxPoint x="-1190" y="1570" as="targetPoint" />
          </mxGeometry>
        </mxCell>
        <mxCell id="biQodX1SEKOZoz9GVlzy-89" value="1" style="resizable=0;html=1;whiteSpace=wrap;align=right;verticalAlign=bottom;" parent="biQodX1SEKOZoz9GVlzy-88" connectable="0" vertex="1">
          <mxGeometry x="1" relative="1" as="geometry" />
        </mxCell>
        <mxCell id="biQodX1SEKOZoz9GVlzy-93" value="Working" style="shape=rhombus;perimeter=rhombusPerimeter;whiteSpace=wrap;html=1;align=center;fontFamily=Helvetica;fontSize=11;fillColor=#fad9d5;strokeColor=#ae4132;" parent="1" vertex="1">
          <mxGeometry x="-1402" y="505" width="120" height="60" as="geometry" />
        </mxCell>
        <mxCell id="biQodX1SEKOZoz9GVlzy-94" value="" style="endArrow=none;html=1;rounded=0;fontSize=12;startSize=8;endSize=8;exitX=0.75;exitY=0;exitDx=0;exitDy=0;entryX=0.5;entryY=1;entryDx=0;entryDy=0;" parent="1" source="Y-LkQrVHgWmDQBg6I4oN-10" target="biQodX1SEKOZoz9GVlzy-93" edge="1">
          <mxGeometry relative="1" as="geometry">
            <mxPoint x="-1477" y="790" as="sourcePoint" />
            <mxPoint x="-1520" y="630" as="targetPoint" />
          </mxGeometry>
        </mxCell>
        <mxCell id="biQodX1SEKOZoz9GVlzy-95" value="N" style="resizable=0;html=1;whiteSpace=wrap;align=right;verticalAlign=bottom;" parent="biQodX1SEKOZoz9GVlzy-94" connectable="0" vertex="1">
          <mxGeometry x="1" relative="1" as="geometry">
            <mxPoint x="10" y="20" as="offset" />
          </mxGeometry>
        </mxCell>
        <mxCell id="biQodX1SEKOZoz9GVlzy-96" value="" style="endArrow=none;html=1;rounded=0;fontSize=12;startSize=8;endSize=8;exitX=1;exitY=1;exitDx=0;exitDy=0;entryX=0.5;entryY=0;entryDx=0;entryDy=0;" parent="1" source="Y-LkQrVHgWmDQBg6I4oN-17" target="biQodX1SEKOZoz9GVlzy-93" edge="1">
          <mxGeometry relative="1" as="geometry">
            <mxPoint x="-1477" y="790" as="sourcePoint" />
            <mxPoint x="-1580" y="660" as="targetPoint" />
          </mxGeometry>
        </mxCell>
        <mxCell id="biQodX1SEKOZoz9GVlzy-97" value="1" style="resizable=0;html=1;whiteSpace=wrap;align=right;verticalAlign=bottom;" parent="biQodX1SEKOZoz9GVlzy-96" connectable="0" vertex="1">
          <mxGeometry x="1" relative="1" as="geometry">
            <mxPoint x="7" y="-5" as="offset" />
          </mxGeometry>
        </mxCell>
        <mxCell id="biQodX1SEKOZoz9GVlzy-99" value="Employee No." style="ellipse;whiteSpace=wrap;html=1;align=center;fontStyle=4;fillColor=#330066;fontColor=#FFFFFF;" parent="1" vertex="1">
          <mxGeometry x="-1662" y="710" width="100" height="40" as="geometry" />
        </mxCell>
        <mxCell id="zNO-vaTu2o3wKGik7Tly-1" value="Post Code" style="ellipse;whiteSpace=wrap;align=center;fontColor=#FFFFFF;fillColor=#004C99;fontStyle=4" parent="1" vertex="1">
          <mxGeometry x="-1270" y="447.5" width="100" height="40" as="geometry" />
        </mxCell>
      </root>
    </mxGraphModel>
  </diagram>
</mxfile>
